<svg xmlns="http://www.w3.org/2000/svg" width="66" height="59"><path fill="#69879B" d="M64.833 2.871A2.697 2.697 0 0 0 62.203.25 1765.883 1765.883 0 0 0 2.9.25C1.478.273.297 1.451.27 2.871a1316.947 1316.947 0 0 0 0 53.258c.027 1.42 1.208 2.597 2.63 2.621a1765.705 1765.705 0 0 0 59.303 0c1.422-.024 2.602-1.201 2.63-2.621.358-17.711.358-35.547 0-53.258z"/><path fill="#FFF" d="M22.098 50.037h-2.59V38.886c0-2.986-1.127-3.718-3.547-3.718-1.578 0-3.269.676-4.564 1.747v13.122H8.75V33.31h1.747l.619 1.633c1.69-1.239 3.322-1.971 5.521-1.971 3.83 0 5.461 1.465 5.461 5.914v11.151zM25.7 23.881l9.522-12.729h-9.126V8.956h12.448v1.858L28.97 23.487h10.025v2.197H25.7zM37.378 40.237l-8.56.731c0-4.279.899-5.801 4.449-5.801 3.266.001 4.111 1.408 4.111 5.07zm2.495.507c0-6.14-2.363-7.772-6.701-7.772-4.732 0-7.099 1.858-7.099 7.997v1.69c0 6.309 2.535 7.716 7.211 7.716 2.311 0 4.337-.28 5.801-.62v-2.252c-1.69.338-3.435.675-5.801.675-3.21 0-4.505-.957-4.562-5.124l11.15-.846v-1.464zM53.56 15.904l-8.562.733c0-4.281.902-5.802 4.449-5.802 3.266.001 4.113 1.41 4.113 5.069zm-11.208 2.423c0 6.308 2.534 7.715 7.207 7.715 2.311 0 4.338-.28 5.804-.619V23.17c-1.69.338-3.437.678-5.804.678-3.21 0-4.505-.959-4.561-5.127l11.152-.844v-1.465c0-6.14-2.366-7.772-6.703-7.772-4.729 0-7.096 1.858-7.096 7.998v1.689zM49.812 50.375c-5.24 0-6.647-1.971-6.647-5.237h2.591c0 2.139.902 3.098 4.057 3.098 3.547 0 4.222-1.127 4.222-2.817 0-1.971-1.688-2.253-4.505-2.646-3.435-.508-6.081-1.295-6.081-4.845 0-3.378 2.479-4.955 6.42-4.955 4.394 0 6.364 1.521 6.364 5.294h-2.591c0-1.971-.902-3.098-3.773-3.098-2.366 0-3.829.788-3.829 2.703 0 1.972 1.463 2.254 4.054 2.704 3.549.619 6.535 1.069 6.535 4.787-.002 2.703-.793 5.012-6.817 5.012zM15.558 10.836c-2.818 0-3.886.845-3.886 3.154H9.081c0-4.056 2.308-5.351 6.477-5.351 4.673 0 6.42 1.576 6.42 5.576v11.489H20.23l-.563-1.634c-1.632 1.296-3.21 2.028-5.405 2.028-3.829 0-5.856-1.633-5.856-4.788 0-2.871 1.8-4.729 5.461-4.957l5.521-.336v-1.859c-.001-2.365-.788-3.322-3.83-3.322zm-4.506 10.308c0 1.858 1.184 2.76 3.435 2.76 2.086 0 3.438-.676 4.9-1.915V17.99l-5.408.451c-1.971.167-2.927 1.068-2.927 2.703z"/></svg>