<svg xmlns="http://www.w3.org/2000/svg" width="84" height="59" viewBox="0 0 84 59"><g fill="#3C3858"><path d="M20.58 24.524h.08L27.943.406h2.156l-8.176 26.437H19.32L11.144.406H13.3l7.28 24.118zM51.322 17.69c0 7.443-2.846 9.56-8.826 9.56s-8.826-2.116-8.826-9.56V9.56C33.67 2.115 36.517 0 42.496 0c5.98 0 8.826 2.115 8.826 9.558v8.133zM49.288 9.56c0-6.345-1.952-7.77-6.792-7.77s-6.792 1.425-6.792 7.77v8.134c0 6.346 1.952 7.768 6.792 7.768s6.792-1.422 6.792-7.768V9.558zM20.662 34.215h-.08L13.3 58.333h-2.156l8.175-26.438h2.602L30.1 58.333h-2.157l-7.28-24.118zM63.908 34.215h-.08l-7.282 24.118H54.39l8.176-26.438h2.603l8.175 26.438H71.19l-7.282-24.118zM34.173 58.333V31.896h7.483c6.142 0 9.68 1.872 9.68 9.437v7.563c0 7.566-3.538 9.438-9.68 9.438h-7.483zm7.483-1.79c4.8 0 7.647-1.383 7.647-7.648v-7.563c0-6.264-2.848-7.646-7.647-7.646h-5.45v22.857h5.45zM70.967 26.843H67.89c-6.142 0-9.68-1.87-9.68-9.437V.392h2.033v17.014c0 6.264 2.848 7.646 7.646 7.646h3.077v1.79z"/></g><path fill-rule="evenodd" clip-rule="evenodd" fill="#3C3858" d="M81.876 56.387h-5.73v1.946H84V.393h-7.854v1.945h5.73v54.05M2.124 56.387h5.728v1.946H0V.393h7.852v1.945H2.124v54.05"/></svg>