<?xml version="1.0" encoding="utf-8"?>
<!-- Generator: Adobe Illustrator 24.3.0, SVG Export Plug-In . SVG Version: 6.00 Build 0)  -->
<svg version="1.1" id="Calque_1" xmlns="http://www.w3.org/2000/svg" xmlns:xlink="http://www.w3.org/1999/xlink" x="0px" y="0px"
	 viewBox="0 0 364.17 364.38" style="enable-background:new 0 0 364.17 364.38;" xml:space="preserve">
<style type="text/css">
	.st0{fill:url(#SVGID_1_);}
	.st1{fill:url(#SVGID_2_);}
	.st2{fill:url(#SVGID_3_);}
	.st3{fill:url(#SVGID_4_);}
	.st4{fill:url(#SVGID_5_);}
</style>
<g>
	
		<radialGradient id="SVGID_1_" cx="196.8874" cy="87.3804" r="122.6333" gradientTransform="matrix(nan nan nan nan nan nan)" gradientUnits="userSpaceOnUse">
		<stop  offset="0" style="stop-color:#7072AF"/>
		<stop  offset="1" style="stop-color:#447DBB"/>
	</radialGradient>
	<path class="st0" d="M336.2,47.43c-12.19,0-22.02,9.94-22.02,22.23c0,1.64,0.21,3.38,0.61,5.22L315,75.7l0.2,0.41l-0.41,0.31
		l-0.72,0.41l-25,13.62l-0.72,0.41l-0.41,0.2l-0.31-0.41l-0.51-0.61c-4.3-4.51-10.04-7.07-16.19-7.07c-4.51,0-8.91,1.43-12.8,4.2
		l-0.72,0.51l-0.31,0.31l-0.41-0.31l-0.61-0.51l-35.96-30.02l-0.61-0.51l-0.31-0.31l0.21-0.41l0.41-0.72
		c1.43-3.07,2.15-6.25,2.15-9.32c0-12.19-9.94-22.13-22.13-22.13c-12.19,0-22.02,9.94-22.02,22.13c0,4.61,1.33,9.01,4,12.6
		l0.41,0.72l0.21,0.31l-0.31,0.31l-0.51,0.61l-41.28,48.25l-0.51,0.61l-0.31,0.41l-0.41-0.2l-0.72-0.41
		c-3.18-1.54-6.45-2.36-9.63-2.36c-6.35,0-12.39,2.77-16.6,7.58l-0.61,0.72l-0.31,0.21l-0.31-0.1l-0.61-0.31L80.11,99.67l-0.72-0.31
		l-0.51-0.21l0.21-0.51l0.21-0.82c0.31-1.54,0.41-3.18,0.41-4.51c0-12.19-9.94-22.13-22.13-22.13s-22.02,9.94-22.02,22.13
		s9.83,22.13,22.02,22.13c6.35,0,12.39-2.77,16.6-7.68l0.51-0.61l0.31-0.41l0.41,0.31l0.72,0.41l30.22,15.06l0.61,0.31l0.51,0.1
		l-0.21,0.51l-0.21,0.82c-0.31,1.84-0.41,3.28-0.41,4.61c0,12.19,9.94,22.13,22.13,22.13c12.19,0,22.02-9.94,22.02-22.13
		c0-4.51-1.33-8.91-4-12.6l-0.41-0.82l-0.21-0.31l0.82-0.82l41.28-48.25l0.51-0.62l0.2-0.31l0.41,0.21l0.72,0.31
		c3.28,1.54,6.45,2.36,9.73,2.36c4.61,0,9.01-1.43,12.91-4.2l0.51-0.51l0.41-0.31l0.41,0.31l0.61,0.51l35.96,30.01l0.61,0.51
		l0.31,0.31l-0.21,0.41l-0.31,0.72c-1.43,2.97-2.15,6.04-2.15,9.42c0,12.09,9.83,22.02,22.02,22.02s22.13-9.94,22.13-22.02
		c0-1.74-0.31-3.59-0.61-5.43l-0.21-0.72l-0.1-0.41l0.31-0.21l0.61-0.41l25.1-13.62l0.72-0.41l0.41-0.31l0.31,0.41l0.51,0.61
		c4.2,4.51,9.94,6.97,16.08,6.97c12.19,0,22.02-9.94,22.02-22.02C358.23,57.37,348.39,47.43,336.2,47.43z M57.57,106.74
		c-7.48,0-13.52-6.04-13.52-13.42c0-7.48,6.04-13.52,13.52-13.52c7.48,0,13.52,6.04,13.52,13.52
		C71.09,100.7,65.05,106.74,57.57,106.74z M128.77,142.29c-7.48,0-13.52-6.04-13.52-13.42c0-7.38,6.04-13.42,13.52-13.42
		c7.38,0,13.42,6.04,13.42,13.42C142.19,136.24,136.14,142.29,128.77,142.29z M199.86,59.31c-7.48,0-13.52-6.04-13.52-13.42
		c0-7.48,6.04-13.52,13.52-13.52c7.48,0,13.52,6.04,13.52,13.52C213.38,53.27,207.34,59.31,199.86,59.31z M270.95,118.62
		c-7.38,0-13.42-6.04-13.42-13.42c0-7.48,6.04-13.52,13.42-13.52c7.48,0,13.52,6.04,13.52,13.52
		C284.47,112.58,278.43,118.62,270.95,118.62z M336.2,82.98c-7.48,0-13.52-5.94-13.52-13.32c0-7.48,6.04-13.52,13.52-13.52
		c7.48,0,13.52,6.04,13.52,13.52C349.73,77.03,343.68,82.98,336.2,82.98z"/>
	
		<radialGradient id="SVGID_2_" cx="288.8264" cy="288.929" r="39.8047" gradientTransform="matrix(nan nan nan nan nan nan)" gradientUnits="userSpaceOnUse">
		<stop  offset="0" style="stop-color:#7072AF"/>
		<stop  offset="1" style="stop-color:#447DBB"/>
	</radialGradient>
	<path class="st1" d="M310.9,306.7c0,10.04-6.76,18.85-16.6,21.31l-0.72,0.21l-0.51,0.1v8.09c0,2.36-1.95,4.3-4.3,4.3
		c-2.36,0-4.3-1.95-4.3-4.3v-8.09l-0.41-0.1l-0.82-0.21c-9.12-2.25-15.78-10.24-16.49-19.77h8.61c0.92,6.86,6.56,11.88,13.42,11.88
		c7.48,0,13.52-6.04,13.52-13.42c0-7.38-6.04-13.42-13.52-13.42c-12.19,0-22.02-9.94-22.02-22.13c0-10.04,6.76-18.85,16.6-21.31
		l0.72-0.2l0.41-0.1v-7.99c0-2.36,1.95-4.4,4.3-4.4c2.36,0,4.3,2.05,4.3,4.4v7.99l0.51,0.1l0.72,0.2
		c9.22,2.46,15.88,10.35,16.6,19.67h-8.71c-0.92-6.76-6.56-11.88-13.42-11.88c-7.48,0-13.52,6.04-13.52,13.52
		c0,7.38,6.04,13.42,13.52,13.42C300.97,284.58,310.9,294.51,310.9,306.7z"/>
	
		<radialGradient id="SVGID_3_" cx="336.2045" cy="288.929" r="4.3283" gradientTransform="matrix(nan nan nan nan nan nan)" gradientUnits="userSpaceOnUse">
		<stop  offset="0" style="stop-color:#7072AF"/>
		<stop  offset="1" style="stop-color:#447DBB"/>
	</radialGradient>
	<path class="st2" d="M340.51,288.98c0,2.36-1.95,4.3-4.3,4.3c-2.36,0-4.3-1.95-4.3-4.3c0-2.46,1.95-4.4,4.3-4.4
		C338.56,284.58,340.51,286.52,340.51,288.98z"/>
	
		<radialGradient id="SVGID_4_" cx="182.0852" cy="182.1878" r="182.1365" gradientTransform="matrix(nan nan nan nan nan nan)" gradientUnits="userSpaceOnUse">
		<stop  offset="0" style="stop-color:#7072AF"/>
		<stop  offset="1" style="stop-color:#447DBB"/>
	</radialGradient>
	<path class="st3" d="M364.17,281.4V118.62h-44.15v101.52l-0.82-0.31l-1.43-0.61c-6.97-2.97-14.75-4.81-23.15-5.53l-1.02-0.1h-0.51
		v-59.41h-44.15v70.79l-0.31,0.1l-0.51,0.31c-9.22,6.04-17.31,14.14-23.15,23.56l-1.84,3.07l-1.13,1.74V94.86h-44.15v201.6h-27.04
		V177.83h-44.15v118.62H79.7v-11.88h-8.6v11.88H44.05V150.99h27.04v118.52h8.6V142.29H35.55v154.17H8.5V4.3C8.5,2.05,6.56,0,4.3,0
		C1.95,0,0,1.95,0,4.3v300.76h215.12l0.1,0.41l0.21,0.82c8.09,34.21,38.21,58.08,73.35,58.08c16.7,0,33.09-5.63,46.1-15.78
		c0.31-0.41,1.02-1.54,1.02-2.87c0-1.13-0.41-2.36-1.23-3.07c-0.82-0.82-1.95-1.33-3.07-1.33c-1.13,0-1.95,0.51-2.36,0.72
		c-0.1,0.1-0.2,0.21-0.31,0.31c-0.21,0.1-0.31,0.21-0.51,0.31c-11.37,8.5-25.1,13.01-39.64,13.01c-36.78,0-66.79-29.91-66.79-66.69
		c0-36.88,30.01-66.89,66.79-66.89c36.88,0,66.89,30.01,66.89,66.89c0,11.88-3.28,23.66-9.32,34.01c-0.1,0.1-0.21,0.21-0.31,0.41
		c-0.1,0.1-0.21,0.1-0.21,0.2c-0.2,0.51-0.31,1.13-0.31,1.84c0,2.36,1.95,4.3,4.3,4.3c1.43,0,2.77-0.61,3.48-1.84
		c0.1-0.1,0.31-0.41,0.41-0.51v-0.2l0.1-0.21c6.76-11.47,10.35-24.59,10.35-38.01c0-2.05,0-3.79-0.31-5.84l-0.1-1.13v-0.61H364.17z
		 M142.19,296.46h-26.94V186.54h26.94V296.46z M213.38,296.46h-27.04V103.57h27.04V296.46z M284.47,213.59h-0.51l-0.92,0.1
		c-8.5,0.72-16.29,2.56-23.25,5.53l-1.43,0.61l-0.82,0.31v-57.26h26.94V213.59z M355.67,253.54l-1.13-1.64l-1.84-2.97
		c-6.04-9.42-14.14-17.52-23.25-23.56l-0.51-0.31l-0.31-0.1v-97.73h27.04V253.54z"/>
	
		<radialGradient id="SVGID_5_" cx="241.3972" cy="288.929" r="4.3538" gradientTransform="matrix(nan nan nan nan nan nan)" gradientUnits="userSpaceOnUse">
		<stop  offset="0" style="stop-color:#7072AF"/>
		<stop  offset="1" style="stop-color:#447DBB"/>
	</radialGradient>
	<path class="st4" d="M245.75,288.98c0,2.36-2.05,4.3-4.4,4.3c-2.36,0-4.3-1.95-4.3-4.3c0-2.46,1.95-4.4,4.3-4.4
		C243.8,284.58,245.75,286.52,245.75,288.98z"/>
</g>
</svg>
