<?xml version="1.0" encoding="utf-8"?>
<!-- Generator: Adobe Illustrator 24.3.0, SVG Export Plug-In . SVG Version: 6.00 Build 0)  -->
<svg version="1.1" id="Calque_1" xmlns="http://www.w3.org/2000/svg" xmlns:xlink="http://www.w3.org/1999/xlink" x="0px" y="0px"
	 viewBox="0 0 34.84 34.83" style="enable-background:new 0 0 34.84 34.83;" xml:space="preserve">
<style type="text/css">
	.st0{clip-path:url(#SVGID_2_);}
	.st1{fill:#6C74B1;}
	.st2{clip-path:url(#SVGID_4_);}
	.st3{fill:#517BBA;}
	.st4{fill:#4F7CBA;}
	.st5{fill:#4D7CBA;}
	.st6{fill:#4C7CBB;}
	.st7{fill:#4A7DBB;}
	.st8{fill:#487DBC;}
	.st9{fill:#477DBC;}
	.st10{fill:#457EBC;}
	.st11{fill:#6377B4;}
	.st12{fill:#6177B5;}
	.st13{fill:#6078B5;}
	.st14{fill:#5F78B6;}
	.st15{fill:#5E78B6;}
	.st16{fill:#5C79B6;}
	.st17{fill:#5B79B7;}
	.st18{fill:#5979B7;}
	.st19{fill:#587AB8;}
	.st20{fill:#6576B4;}
	.st21{fill:#6477B4;}
	.st22{fill:#577AB8;}
	.st23{fill:#557AB8;}
	.st24{fill:#6676B3;}
	.st25{fill:#7073B0;}
	.st26{fill:#6F73B0;}
	.st27{fill:#6E73B1;}
	.st28{fill:#6D74B1;}
	.st29{fill:#6B74B2;}
	.st30{fill:#6A75B2;}
	.st31{fill:#6975B3;}
	.st32{fill:#6776B3;}
	.st33{fill:#547BB9;}
	.st34{fill:#527BB9;}
	.st35{clip-path:url(#SVGID_6_);}
	.st36{fill:url(#SVGID_7_);}
	.st37{fill:url(#SVGID_8_);}
</style>
<g id="Calque_2_1_">
	<g id="Слой_1">
		<g>
			<defs>
				<polygon id="SVGID_1_" points="3.94,31 2.94,30 2.29,30.64 3.95,32.3 7.07,29.18 6.43,28.54 				"/>
			</defs>
			<use xlink:href="#SVGID_1_"  style="overflow:visible;fill:#6C74B1;"/>
			<clipPath id="SVGID_2_">
				<use xlink:href="#SVGID_1_"  style="overflow:visible;"/>
			</clipPath>
			<g class="st0">
				<path class="st1" d="M2.28,28.51L2.28,28.51z"/>
				<rect x="2.28" y="28.51" class="st1" width="0.14" height="3.77"/>
				<rect x="2.43" y="28.51" class="st1" width="0.14" height="3.77"/>
				<rect x="2.57" y="28.51" class="st1" width="0.14" height="3.77"/>
				<rect x="2.72" y="28.51" class="st1" width="0.14" height="3.77"/>
				<rect x="2.86" y="28.51" class="st1" width="0.14" height="3.77"/>
				<rect x="3.01" y="28.51" class="st1" width="0.14" height="3.77"/>
				<rect x="3.15" y="28.51" class="st1" width="0.14" height="3.77"/>
				<rect x="3.3" y="28.51" class="st1" width="0.14" height="3.77"/>
				<rect x="3.44" y="28.51" class="st1" width="0.14" height="3.77"/>
				<rect x="3.58" y="28.51" class="st1" width="0.14" height="3.77"/>
				<rect x="3.73" y="28.51" class="st1" width="0.14" height="3.77"/>
				<rect x="3.87" y="28.51" class="st1" width="0.14" height="3.77"/>
				<rect x="4.02" y="28.51" class="st1" width="0.14" height="3.77"/>
				<rect x="4.16" y="28.51" class="st1" width="0.14" height="3.77"/>
				<rect x="4.31" y="28.51" class="st1" width="0.14" height="3.77"/>
				<rect x="4.45" y="28.51" class="st1" width="0.14" height="3.77"/>
				<rect x="4.6" y="28.51" class="st1" width="0.14" height="3.77"/>
				<rect x="4.74" y="28.51" class="st1" width="0.14" height="3.77"/>
				<rect x="4.89" y="28.51" class="st1" width="0.14" height="3.77"/>
				<rect x="5.03" y="28.51" class="st1" width="0.14" height="3.77"/>
				<rect x="5.18" y="28.51" class="st1" width="0.14" height="3.77"/>
				<rect x="5.32" y="28.51" class="st1" width="0.14" height="3.77"/>
				<rect x="5.47" y="28.51" class="st1" width="0.14" height="3.77"/>
				<rect x="5.61" y="28.51" class="st1" width="0.14" height="3.77"/>
				<rect x="5.76" y="28.51" class="st1" width="0.14" height="3.77"/>
				<rect x="5.9" y="28.51" class="st1" width="0.14" height="3.77"/>
				<rect x="6.05" y="28.51" class="st1" width="0.14" height="3.77"/>
				<rect x="6.19" y="28.51" class="st1" width="0.14" height="3.77"/>
				<rect x="6.34" y="28.51" class="st1" width="0.14" height="3.77"/>
				<rect x="6.48" y="28.51" class="st1" width="0.14" height="3.77"/>
				<rect x="6.63" y="28.51" class="st1" width="0.14" height="3.77"/>
				<rect x="6.77" y="28.51" class="st1" width="0.14" height="3.77"/>
				<rect x="6.92" y="28.51" class="st1" width="0.14" height="3.77"/>
				<path class="st1" d="M7.06,32.27L7.06,32.27z"/>
			</g>
		</g>
		<g>
			<defs>
				<path id="SVGID_3_" d="M30.23,25.63c-2.34,0.01-4.31,1.76-4.57,4.09h-3.32l-4.41-2.84v-4.52h6.82v-1.2
					c-0.01-1.35-1.06-2.46-2.4-2.55c0.73-1.92,1.1-3.95,1.11-6c-0.02-4.27-2.25-8.22-5.89-10.44C17.35,0.79,16.08-0.17,14.69,0
					h-0.51v2.4L9.42,6.71C9.39,6.73,9.36,6.75,9.34,6.78C9.23,6.89,9.16,7.04,9.16,7.2c0,0.11,0.04,0.23,0.1,0.32l1.42,2.15l0,0
					c0.12,0.16,0.3,0.26,0.5,0.26h0.12c0.07-0.02,0.14-0.05,0.2-0.09l1.38-0.6C13.66,9.46,14.5,9.37,15.22,9l0.33-0.17h0.1
					c0.03,0.02,0.06,0.05,0.08,0.08c0.08,0.06,0.15,0.13,0.21,0.21c-0.25,0.96-0.74,1.84-1.42,2.56c-1.34,1.78-3,3.95-1.89,7
					c-1.4,0.02-2.53,1.15-2.54,2.55v1.2h6.81v4.52l-4.4,2.84H9.18c-0.28-2.53-2.55-4.35-5.07-4.07c-2.53,0.28-4.35,2.55-4.07,5.07
					s2.55,4.35,5.07,4.07c2.14-0.23,3.84-1.93,4.07-4.07h3.32l4.92,3.17l4.92-3.17h3.32c0.28,2.52,2.56,4.34,5.08,4.06
					s4.34-2.56,4.06-5.08C34.54,27.44,32.57,25.63,30.23,25.63L30.23,25.63z M4.6,33.81c-1.98,0-3.58-1.6-3.58-3.58
					s1.6-3.58,3.58-3.58s3.58,1.6,3.58,3.58c0.01,1.97-1.59,3.57-3.56,3.58C4.61,33.81,4.61,33.81,4.6,33.81z M15.33,12.28
					c0.88-0.9,1.46-2.04,1.67-3.28c0-0.13,0-0.53-0.94-1.23c-0.09-0.06-0.21-0.1-0.32-0.1c-0.08-0.02-0.15-0.02-0.23,0
					c-0.03-0.01-0.07-0.01-0.1,0l-0.63,0.31C14.25,8.31,13.6,8.39,13,8.21l-0.19-0.07l-1.49,0.65l0,0l0,0l-1-1.48l0,0l0,0l4.88-4.42
					V1.07c0.76,0.03,1.36,0.65,1.36,1.41v0.31l0.27,0.15c3.46,2,5.59,5.7,5.59,9.7c0,2.06-0.4,4.1-1.18,6h-7.52
					C12.57,15.94,14,14.08,15.33,12.28z M11.11,21.34v-0.18c0.01-0.84,0.69-1.52,1.53-1.53h9.55c0.85,0,1.53,0.68,1.54,1.53v0.18
					H11.11z M17.42,32.69l-3.82-2.46l3.82-2.46l3.82,2.46L17.42,32.69z M30.23,33.81c-1.98,0-3.58-1.6-3.58-3.58s1.6-3.58,3.58-3.58
					s3.58,1.6,3.58,3.58v0c0.01,1.97-1.59,3.57-3.56,3.58C30.24,33.81,30.24,33.81,30.23,33.81z"/>
			</defs>
			<clipPath id="SVGID_4_">
				<use xlink:href="#SVGID_3_"  style="overflow:visible;"/>
			</clipPath>
			<g class="st2">
				<rect x="26.66" y="26.65" class="st3" width="0.79" height="7.16"/>
				<rect x="27.45" y="26.65" class="st4" width="1.06" height="7.16"/>
				<rect x="28.5" y="26.65" class="st5" width="1.06" height="7.16"/>
				<rect x="29.56" y="26.65" class="st6" width="1.06" height="7.16"/>
				<rect x="30.62" y="26.65" class="st7" width="1.06" height="7.16"/>
				<rect x="31.67" y="26.65" class="st8" width="1.06" height="7.16"/>
				<rect x="32.73" y="26.65" class="st9" width="1.06" height="7.16"/>
				<rect x="33.78" y="26.65" class="st10" width="0.03" height="7.16"/>
				<rect x="13.6" y="27.77" class="st11" width="0.13" height="4.92"/>
				<rect x="13.72" y="27.77" class="st12" width="1.06" height="4.92"/>
				<rect x="14.78" y="27.77" class="st13" width="1.06" height="4.92"/>
				<rect x="15.84" y="27.77" class="st14" width="1.06" height="4.92"/>
				<rect x="16.89" y="27.77" class="st15" width="1.06" height="4.92"/>
				<rect x="17.95" y="27.77" class="st16" width="1.06" height="4.92"/>
				<rect x="19" y="27.77" class="st17" width="1.06" height="4.92"/>
				<rect x="20.06" y="27.77" class="st18" width="1.06" height="4.92"/>
				<rect x="21.11" y="27.77" class="st19" width="0.13" height="4.92"/>
				<rect x="11.11" y="19.63" class="st20" width="0.5" height="1.71"/>
				<rect x="11.61" y="19.63" class="st21" width="1.06" height="1.71"/>
				<rect x="12.67" y="19.63" class="st11" width="1.06" height="1.71"/>
				<rect x="13.72" y="19.63" class="st12" width="1.06" height="1.71"/>
				<rect x="14.78" y="19.63" class="st13" width="1.06" height="1.71"/>
				<rect x="15.84" y="19.63" class="st14" width="1.06" height="1.71"/>
				<rect x="16.89" y="19.63" class="st15" width="1.06" height="1.71"/>
				<rect x="17.95" y="19.63" class="st16" width="1.06" height="1.71"/>
				<rect x="19" y="19.63" class="st17" width="1.06" height="1.71"/>
				<rect x="20.06" y="19.63" class="st18" width="1.06" height="1.71"/>
				<rect x="21.11" y="19.63" class="st19" width="1.06" height="1.71"/>
				<rect x="22.17" y="19.63" class="st22" width="1.06" height="1.71"/>
				<rect x="23.23" y="19.63" class="st23" width="0.5" height="1.71"/>
				<rect x="10.32" y="1.07" class="st24" width="0.24" height="17.55"/>
				<rect x="10.56" y="1.07" class="st20" width="1.06" height="17.55"/>
				<rect x="11.61" y="1.07" class="st21" width="1.06" height="17.55"/>
				<rect x="12.67" y="1.07" class="st11" width="1.06" height="17.55"/>
				<rect x="13.72" y="1.07" class="st12" width="1.06" height="17.55"/>
				<rect x="14.78" y="1.07" class="st13" width="1.06" height="17.55"/>
				<rect x="15.84" y="1.07" class="st14" width="1.06" height="17.55"/>
				<rect x="16.89" y="1.07" class="st15" width="1.06" height="17.55"/>
				<rect x="17.95" y="1.07" class="st16" width="1.06" height="17.55"/>
				<rect x="19" y="1.07" class="st17" width="1.06" height="17.55"/>
				<rect x="20.06" y="1.07" class="st18" width="1.06" height="17.55"/>
				<rect x="21.11" y="1.07" class="st19" width="1.06" height="17.55"/>
				<rect x="22.17" y="1.07" class="st22" width="0.26" height="17.55"/>
				<rect x="1.03" y="26.65" class="st25" width="0.03" height="7.16"/>
				<rect x="1.06" y="26.65" class="st26" width="1.06" height="7.16"/>
				<rect x="2.11" y="26.65" class="st27" width="1.06" height="7.16"/>
				<rect x="3.17" y="26.65" class="st28" width="1.06" height="7.16"/>
				<rect x="4.22" y="26.65" class="st1" width="1.06" height="7.16"/>
				<rect x="5.28" y="26.65" class="st29" width="1.06" height="7.16"/>
				<rect x="6.33" y="26.65" class="st30" width="1.06" height="7.16"/>
				<rect x="7.39" y="26.65" class="st31" width="0.79" height="7.16"/>
				<path class="st25" d="M0,0L0,0z"/>
				<rect class="st25" width="1.06" height="34.83"/>
				<rect x="1.06" class="st26" width="1.06" height="34.83"/>
				<rect x="2.11" class="st27" width="1.06" height="34.83"/>
				<rect x="3.17" class="st28" width="1.06" height="34.83"/>
				<rect x="4.22" class="st1" width="1.06" height="34.83"/>
				<rect x="5.28" class="st29" width="1.06" height="34.83"/>
				<rect x="6.33" class="st30" width="1.06" height="34.83"/>
				<rect x="7.39" class="st31" width="1.06" height="34.83"/>
				<rect x="8.45" class="st32" width="1.06" height="34.83"/>
				<rect x="9.5" class="st24" width="1.06" height="34.83"/>
				<rect x="10.56" class="st20" width="1.06" height="34.83"/>
				<rect x="11.61" class="st21" width="1.06" height="34.83"/>
				<rect x="12.67" class="st11" width="1.06" height="34.83"/>
				<rect x="13.72" class="st12" width="1.06" height="34.83"/>
				<rect x="14.78" class="st13" width="1.06" height="34.83"/>
				<rect x="15.84" class="st14" width="1.06" height="34.83"/>
				<rect x="16.89" class="st15" width="1.06" height="34.83"/>
				<rect x="17.95" class="st16" width="1.06" height="34.83"/>
				<rect x="19" class="st17" width="1.06" height="34.83"/>
				<rect x="20.06" class="st18" width="1.06" height="34.83"/>
				<rect x="21.11" class="st19" width="1.06" height="34.83"/>
				<rect x="22.17" class="st22" width="1.06" height="34.83"/>
				<rect x="23.23" class="st23" width="1.06" height="34.83"/>
				<rect x="24.28" class="st33" width="1.06" height="34.83"/>
				<rect x="25.34" class="st34" width="1.06" height="34.83"/>
				<rect x="26.39" class="st3" width="1.06" height="34.83"/>
				<rect x="27.45" class="st4" width="1.06" height="34.83"/>
				<rect x="28.5" class="st5" width="1.06" height="34.83"/>
				<rect x="29.56" class="st6" width="1.06" height="34.83"/>
				<rect x="30.62" class="st7" width="1.06" height="34.83"/>
				<rect x="31.67" class="st8" width="1.06" height="34.83"/>
				<rect x="32.73" class="st9" width="1.06" height="34.83"/>
				<rect x="33.78" class="st10" width="1.06" height="34.83"/>
				<path class="st10" d="M34.84,34.83L34.84,34.83z"/>
			</g>
		</g>
		<g>
			<defs>
				<polygon id="SVGID_5_" points="31.4,28.44 30.23,29.6 29.07,28.44 28.44,29.06 29.61,30.23 28.44,31.39 29.07,32.02 
					30.23,30.86 31.4,32 32.02,31.37 30.86,30.21 32,29.06 				"/>
			</defs>
			<use xlink:href="#SVGID_5_"  style="overflow:visible;fill:#4C7CBB;"/>
			<clipPath id="SVGID_6_">
				<use xlink:href="#SVGID_5_"  style="overflow:visible;"/>
			</clipPath>
			<g class="st35">
				<path class="st6" d="M28.44,28.44L28.44,28.44z"/>
				<rect x="28.44" y="28.44" class="st6" width="0.11" height="3.58"/>
				<rect x="28.55" y="28.44" class="st6" width="0.11" height="3.58"/>
				<rect x="28.66" y="28.44" class="st6" width="0.11" height="3.58"/>
				<rect x="28.77" y="28.44" class="st6" width="0.11" height="3.58"/>
				<rect x="28.88" y="28.44" class="st6" width="0.11" height="3.58"/>
				<rect x="28.99" y="28.44" class="st6" width="0.11" height="3.58"/>
				<rect x="29.09" y="28.44" class="st6" width="0.11" height="3.58"/>
				<rect x="29.2" y="28.44" class="st6" width="0.11" height="3.58"/>
				<rect x="29.31" y="28.44" class="st6" width="0.11" height="3.58"/>
				<rect x="29.42" y="28.44" class="st6" width="0.11" height="3.58"/>
				<rect x="29.53" y="28.44" class="st6" width="0.11" height="3.58"/>
				<rect x="29.64" y="28.44" class="st6" width="0.11" height="3.58"/>
				<rect x="29.75" y="28.44" class="st6" width="0.11" height="3.58"/>
				<rect x="29.85" y="28.44" class="st6" width="0.11" height="3.58"/>
				<rect x="29.96" y="28.44" class="st6" width="0.11" height="3.58"/>
				<rect x="30.07" y="28.44" class="st6" width="0.11" height="3.58"/>
				<rect x="30.18" y="28.44" class="st6" width="0.11" height="3.58"/>
				<rect x="30.29" y="28.44" class="st6" width="0.11" height="3.58"/>
				<rect x="30.4" y="28.44" class="st6" width="0.11" height="3.58"/>
				<rect x="30.5" y="28.44" class="st6" width="0.11" height="3.58"/>
				<rect x="30.61" y="28.44" class="st6" width="0.11" height="3.58"/>
				<rect x="30.72" y="28.44" class="st6" width="0.11" height="3.58"/>
				<rect x="30.83" y="28.44" class="st6" width="0.11" height="3.58"/>
				<rect x="30.94" y="28.44" class="st6" width="0.11" height="3.58"/>
				<rect x="31.05" y="28.44" class="st6" width="0.11" height="3.58"/>
				<rect x="31.16" y="28.44" class="st6" width="0.11" height="3.58"/>
				<rect x="31.26" y="28.44" class="st6" width="0.11" height="3.58"/>
				<rect x="31.37" y="28.44" class="st6" width="0.11" height="3.58"/>
				<rect x="31.48" y="28.44" class="st6" width="0.11" height="3.58"/>
				<rect x="31.59" y="28.44" class="st6" width="0.11" height="3.58"/>
				<rect x="31.7" y="28.44" class="st6" width="0.11" height="3.58"/>
				<rect x="31.81" y="28.44" class="st6" width="0.11" height="3.58"/>
				<rect x="31.92" y="28.44" class="st6" width="0.11" height="3.58"/>
				<path class="st6" d="M32,32L32,32z"/>
			</g>
		</g>
		
			<radialGradient id="SVGID_7_" cx="10.32" cy="28.72" r="0.01" gradientTransform="matrix(1 0 0 -1 0 36)" gradientUnits="userSpaceOnUse">
			<stop  offset="0" style="stop-color:#7073B0"/>
			<stop  offset="1" style="stop-color:#457EBC"/>
		</radialGradient>
		<polygon class="st36" points="10.32,7.27 10.32,7.3 10.32,7.28 		"/>
		
			<radialGradient id="SVGID_8_" cx="11.35" cy="27.21" r="0" gradientTransform="matrix(1 0 0 -1 0 36)" gradientUnits="userSpaceOnUse">
			<stop  offset="0" style="stop-color:#7073B0"/>
			<stop  offset="1" style="stop-color:#457EBC"/>
		</radialGradient>
		<path class="st37" d="M11.35,8.79L11.35,8.79L11.35,8.79z"/>
	</g>
</g>
</svg>
