<svg xmlns="http://www.w3.org/2000/svg" xmlns:xlink="http://www.w3.org/1999/xlink" viewBox="0 0 27.38 28.52"><defs><style>.cls-1{fill:url(#Безымянный_градиент_27);}.cls-2{fill:url(#Безымянный_градиент_27-2);}.cls-3{fill:url(#Безымянный_градиент_27-3);}.cls-4{fill:url(#Безымянный_градиент_27-4);}.cls-5{fill:url(#Безымянный_градиент_27-5);}.cls-6{fill:url(#Безымянный_градиент_27-6);}.cls-7{fill:url(#Безымянный_градиент_27-7);}.cls-8{fill:url(#Безымянный_градиент_27-8);}.cls-9{fill:url(#Безымянный_градиент_27-9);}</style><radialGradient id="Безымянный_градиент_27" cx="13.69" cy="14.26" r="13.98" gradientUnits="userSpaceOnUse"><stop offset="0" stop-color="#7073b0"/><stop offset="1" stop-color="#457ebc"/></radialGradient><radialGradient id="Безымянный_градиент_27-2" cx="13.69" cy="3.44" r="0.29" xlink:href="#Безымянный_градиент_27"/><radialGradient id="Безымянный_градиент_27-3" cx="12.35" cy="3.44" r="0.29" xlink:href="#Безымянный_градиент_27"/><radialGradient id="Безымянный_градиент_27-4" cx="15.03" cy="3.44" r="0.29" xlink:href="#Безымянный_градиент_27"/><radialGradient id="Безымянный_градиент_27-5" cx="13.97" cy="17.67" r="5.31" xlink:href="#Безымянный_градиент_27"/><radialGradient id="Безымянный_градиент_27-6" cx="14.73" cy="15.6" r="1.57" xlink:href="#Безымянный_градиент_27"/><radialGradient id="Безымянный_градиент_27-7" cx="14.73" cy="18.37" r="1.57" xlink:href="#Безымянный_градиент_27"/><radialGradient id="Безымянный_градиент_27-8" cx="13.83" cy="19.75" r="0.94" xlink:href="#Безымянный_градиент_27"/><radialGradient id="Безымянный_градиент_27-9" cx="14.73" cy="16.98" r="1.57" xlink:href="#Безымянный_градиент_27"/></defs><g id="Calque_2" data-name="Calque 2"><g id="Слой_1" data-name="Слой 1"><path class="cls-1" d="M27.15,25.87H25.59A1.32,1.32,0,0,0,25.9,25V9.34A1.32,1.32,0,0,0,24.59,8H16.68L17.9,6.8a.28.28,0,0,0-.19-.49H16.46v-6A.28.28,0,0,0,16.17,0h-5a.29.29,0,0,0-.29.28v6H9.67a.29.29,0,0,0-.26.17.29.29,0,0,0,.06.32L10.7,8H2.84A1.33,1.33,0,0,0,1.52,9.34V25a1.28,1.28,0,0,0,.32.85H.23a.23.23,0,0,0-.23.22v.14a2.24,2.24,0,0,0,.47,1.39,2.26,2.26,0,0,0,1.81.9H25.09a2.29,2.29,0,0,0,2.29-2.29V26.1A.23.23,0,0,0,27.15,25.87Zm-16.78-19h.83a.29.29,0,0,0,.29-.29v-6h4.4v6a.28.28,0,0,0,.28.29H17L15.4,8.49l-1.71,1.72L12,8.49ZM2,9.34a.85.85,0,0,1,.85-.85h8.32l2.33,2.32a.26.26,0,0,0,.2.08.27.27,0,0,0,.2-.08l2.32-2.32h8.38a.86.86,0,0,1,.85.85V25a.86.86,0,0,1-.85.85H2.84A.85.85,0,0,1,2,25Zm23.1,18.71H2.28A1.82,1.82,0,0,1,.47,26.34H26.91A1.82,1.82,0,0,1,25.09,28.05Z"/><circle class="cls-2" cx="13.69" cy="3.44" r="0.29"/><circle class="cls-3" cx="12.35" cy="3.44" r="0.29"/><circle class="cls-4" cx="15.03" cy="3.44" r="0.29"/><path class="cls-5" d="M18.26,13.45h-1v-1a.55.55,0,0,0-.55-.55H9.68a.55.55,0,0,0-.55.55v8.86a.55.55,0,0,0,.55.56h1v1a.56.56,0,0,0,.55.56h4.71a1.65,1.65,0,0,0,1-.38l1.54-1.46a1.49,1.49,0,0,0,.41-.93V14A.56.56,0,0,0,18.26,13.45ZM10.65,14v7.48h-1a.14.14,0,0,1-.14-.14V12.48a.14.14,0,0,1,.14-.14h7.06a.15.15,0,0,1,.14.14v1H11.2A.55.55,0,0,0,10.65,14Zm7.48,7.28-1.55,1.46a.36.36,0,0,1-.12.08V21.55a.34.34,0,0,1,.35-.35h1.38Zm.27-.63a.78.78,0,0,1,0,.14H16.81a.76.76,0,0,0-.76.76V23H11.2a.14.14,0,0,1-.14-.14V14a.14.14,0,0,1,.14-.13h7.06a.13.13,0,0,1,.14.13Z"/><path class="cls-6" d="M16.74,15.39h-4a.21.21,0,0,0-.21.21.2.2,0,0,0,.21.2h4a.21.21,0,1,0,0-.41Z"/><path class="cls-7" d="M16.74,18.16h-4a.21.21,0,0,0-.21.21.2.2,0,0,0,.21.2h4a.21.21,0,1,0,0-.41Z"/><path class="cls-8" d="M14.94,19.54H12.73a.21.21,0,0,0-.21.21.21.21,0,0,0,.21.21h2.21a.22.22,0,0,0,.21-.21A.21.21,0,0,0,14.94,19.54Z"/><path class="cls-9" d="M16.74,16.77h-4a.21.21,0,0,0-.21.21.21.21,0,0,0,.21.21h4A.21.21,0,0,0,17,17,.22.22,0,0,0,16.74,16.77Z"/></g></g></svg>