<?xml version="1.0" encoding="utf-8"?>
<!-- Generator: Adobe Illustrator 24.3.0, SVG Export Plug-In . SVG Version: 6.00 Build 0)  -->
<svg version="1.1" id="Calque_1" xmlns="http://www.w3.org/2000/svg" xmlns:xlink="http://www.w3.org/1999/xlink" x="0px" y="0px"
	 viewBox="0 0 35.13 35.14" style="enable-background:new 0 0 35.13 35.14;" xml:space="preserve">
<style type="text/css">
	.st0{clip-path:url(#SVGID_3_);}
	.st1{fill:url(#SVGID_4_);}
	.st2{fill:url(#SVGID_5_);}
	.st3{fill:url(#SVGID_6_);}
	.st4{fill:url(#SVGID_7_);}
	.st5{fill:url(#SVGID_8_);}
	.st6{fill:url(#SVGID_9_);}
	.st7{fill:url(#SVGID_10_);}
	.st8{fill:url(#SVGID_11_);}
	.st9{fill:url(#SVGID_12_);}
	.st10{fill:url(#SVGID_13_);}
	.st11{fill:url(#SVGID_14_);}
	.st12{fill:url(#SVGID_15_);}
	.st13{fill:url(#SVGID_16_);}
	.st14{fill:url(#SVGID_17_);}
	.st15{fill:url(#SVGID_18_);}
	.st16{fill:url(#SVGID_19_);}
	.st17{fill:url(#SVGID_20_);}
	.st18{fill:url(#SVGID_21_);}
	.st19{fill:url(#SVGID_22_);}
	.st20{fill:url(#SVGID_23_);}
	.st21{fill:url(#SVGID_24_);}
	.st22{fill:url(#SVGID_25_);}
	.st23{fill:url(#SVGID_26_);}
	.st24{fill:url(#SVGID_27_);}
	.st25{fill:url(#SVGID_28_);}
	.st26{fill:url(#SVGID_29_);}
	.st27{fill:url(#SVGID_30_);}
	.st28{fill:url(#SVGID_31_);}
	.st29{fill:url(#SVGID_32_);}
	.st30{fill:url(#SVGID_33_);}
	.st31{fill:url(#SVGID_34_);}
	.st32{fill:url(#SVGID_35_);}
	.st33{fill:url(#SVGID_36_);}
	.st34{fill:url(#SVGID_37_);}
	.st35{fill:url(#SVGID_38_);}
	.st36{fill:url(#SVGID_39_);}
	.st37{clip-path:url(#SVGID_41_);}
	.st38{fill:#7073B0;}
	.st39{fill:#6F73B0;}
	.st40{fill:#6E73B1;}
	.st41{fill:#6D74B1;}
	.st42{fill:#6C74B1;}
	.st43{fill:#6B74B2;}
	.st44{fill:#6A75B2;}
	.st45{fill:#6975B3;}
	.st46{fill:#6776B3;}
	.st47{fill:#6676B3;}
	.st48{fill:#6576B4;}
	.st49{fill:#6477B4;}
	.st50{fill:#6377B4;}
	.st51{fill:#6177B5;}
	.st52{fill:#6078B5;}
	.st53{fill:#5F78B6;}
	.st54{fill:#5E78B6;}
	.st55{fill:#5C79B6;}
	.st56{fill:#5B79B7;}
	.st57{fill:#5979B7;}
	.st58{fill:#587AB8;}
	.st59{fill:#577AB8;}
	.st60{fill:#557AB8;}
	.st61{fill:#547BB9;}
	.st62{fill:#527BB9;}
	.st63{fill:#517BBA;}
	.st64{fill:#4F7CBA;}
	.st65{fill:#4D7CBA;}
	.st66{fill:#4C7CBB;}
	.st67{fill:#4A7DBB;}
	.st68{fill:#487DBC;}
	.st69{fill:#477DBC;}
	.st70{fill:#457EBC;}
	.st71{fill:url(#SVGID_42_);}
	.st72{fill:#FFFFFF;}
	.st73{fill:url(#SVGID_43_);}
	.st74{fill:url(#SVGID_44_);}
	.st75{fill:url(#SVGID_45_);}
	.st76{clip-path:url(#SVGID_47_);}
	.st77{clip-path:url(#SVGID_49_);}
	.st78{clip-path:url(#SVGID_51_);}
	.st79{clip-path:url(#SVGID_53_);}
</style>
<g id="Calque_2_1_">
	<g id="Слой_1">
		<g>
			<defs>
				<path id="SVGID_1_" d="M19.75,9c-0.01,0.99-0.68,1.86-1.64,2.11H18v0.73c0,0.26-0.21,0.47-0.47,0.47
					c-0.26,0-0.47-0.21-0.47-0.47v-0.73H17c-0.92-0.24-1.58-1.05-1.63-2h0.94c0.06,0.68,0.65,1.19,1.34,1.14s1.19-0.65,1.14-1.34
					c-0.05-0.64-0.59-1.14-1.23-1.14c-1.2,0-2.17-0.97-2.17-2.17c0-0.99,0.67-1.85,1.62-2.1h0.08V2.75c0-0.26,0.21-0.47,0.47-0.47
					c0.26,0,0.47,0.21,0.47,0.47l0,0v0.73h0.07c0.92,0.24,1.59,1.05,1.63,2H18.8c-0.06-0.68-0.65-1.19-1.34-1.14
					C16.78,4.4,16.27,5,16.33,5.68c0.05,0.65,0.59,1.14,1.24,1.14C18.77,6.83,19.74,7.8,19.75,9z"/>
			</defs>
			<radialGradient id="SVGID_2_" cx="17.56" cy="7.295" r="3.8695" gradientUnits="userSpaceOnUse">
				<stop  offset="0" style="stop-color:#7073B0"/>
				<stop  offset="1" style="stop-color:#457EBC"/>
			</radialGradient>
			<use xlink:href="#SVGID_1_"  style="overflow:visible;fill:url(#SVGID_2_);"/>
			<clipPath id="SVGID_3_">
				<use xlink:href="#SVGID_1_"  style="overflow:visible;"/>
			</clipPath>
			<g class="st0">
				<radialGradient id="SVGID_4_" cx="15.39" cy="2.28" r="0" gradientUnits="userSpaceOnUse">
					<stop  offset="0" style="stop-color:#7073B0"/>
					<stop  offset="1" style="stop-color:#457EBC"/>
				</radialGradient>
				<path class="st1" d="M15.39,2.28L15.39,2.28z"/>
				<radialGradient id="SVGID_5_" cx="15.455" cy="7.31" r="3.557" gradientUnits="userSpaceOnUse">
					<stop  offset="0" style="stop-color:#7073B0"/>
					<stop  offset="1" style="stop-color:#457EBC"/>
				</radialGradient>
				<rect x="15.39" y="2.28" class="st2" width="0.13" height="10.06"/>
				<radialGradient id="SVGID_6_" cx="15.585" cy="7.31" r="3.557" gradientUnits="userSpaceOnUse">
					<stop  offset="0" style="stop-color:#7073B0"/>
					<stop  offset="1" style="stop-color:#457EBC"/>
				</radialGradient>
				<rect x="15.52" y="2.28" class="st3" width="0.13" height="10.06"/>
				<radialGradient id="SVGID_7_" cx="15.715" cy="7.31" r="3.557" gradientUnits="userSpaceOnUse">
					<stop  offset="0" style="stop-color:#7073B0"/>
					<stop  offset="1" style="stop-color:#457EBC"/>
				</radialGradient>
				<rect x="15.65" y="2.28" class="st4" width="0.13" height="10.06"/>
				<radialGradient id="SVGID_8_" cx="15.855" cy="7.31" r="3.557" gradientUnits="userSpaceOnUse">
					<stop  offset="0" style="stop-color:#7073B0"/>
					<stop  offset="1" style="stop-color:#457EBC"/>
				</radialGradient>
				<rect x="15.79" y="2.28" class="st5" width="0.13" height="10.06"/>
				<radialGradient id="SVGID_9_" cx="15.985" cy="7.31" r="3.557" gradientUnits="userSpaceOnUse">
					<stop  offset="0" style="stop-color:#7073B0"/>
					<stop  offset="1" style="stop-color:#457EBC"/>
				</radialGradient>
				<rect x="15.92" y="2.28" class="st6" width="0.13" height="10.06"/>
				<radialGradient id="SVGID_10_" cx="16.115" cy="7.31" r="3.557" gradientUnits="userSpaceOnUse">
					<stop  offset="0" style="stop-color:#7073B0"/>
					<stop  offset="1" style="stop-color:#457EBC"/>
				</radialGradient>
				<rect x="16.05" y="2.28" class="st7" width="0.13" height="10.06"/>
				<radialGradient id="SVGID_11_" cx="16.245" cy="7.31" r="3.557" gradientUnits="userSpaceOnUse">
					<stop  offset="0" style="stop-color:#7073B0"/>
					<stop  offset="1" style="stop-color:#457EBC"/>
				</radialGradient>
				<rect x="16.18" y="2.28" class="st8" width="0.13" height="10.06"/>
				<radialGradient id="SVGID_12_" cx="16.375" cy="7.31" r="3.557" gradientUnits="userSpaceOnUse">
					<stop  offset="0" style="stop-color:#7073B0"/>
					<stop  offset="1" style="stop-color:#457EBC"/>
				</radialGradient>
				<rect x="16.31" y="2.28" class="st9" width="0.13" height="10.06"/>
				<radialGradient id="SVGID_13_" cx="16.515" cy="7.31" r="3.557" gradientUnits="userSpaceOnUse">
					<stop  offset="0" style="stop-color:#7073B0"/>
					<stop  offset="1" style="stop-color:#457EBC"/>
				</radialGradient>
				<rect x="16.45" y="2.28" class="st10" width="0.13" height="10.06"/>
				<radialGradient id="SVGID_14_" cx="16.645" cy="7.31" r="3.557" gradientUnits="userSpaceOnUse">
					<stop  offset="0" style="stop-color:#7073B0"/>
					<stop  offset="1" style="stop-color:#457EBC"/>
				</radialGradient>
				<rect x="16.58" y="2.28" class="st11" width="0.13" height="10.06"/>
				<radialGradient id="SVGID_15_" cx="16.775" cy="7.31" r="3.557" gradientUnits="userSpaceOnUse">
					<stop  offset="0" style="stop-color:#7073B0"/>
					<stop  offset="1" style="stop-color:#457EBC"/>
				</radialGradient>
				<rect x="16.71" y="2.28" class="st12" width="0.13" height="10.06"/>
				<radialGradient id="SVGID_16_" cx="16.905" cy="7.31" r="3.557" gradientUnits="userSpaceOnUse">
					<stop  offset="0" style="stop-color:#7073B0"/>
					<stop  offset="1" style="stop-color:#457EBC"/>
				</radialGradient>
				<rect x="16.84" y="2.28" class="st13" width="0.13" height="10.06"/>
				<radialGradient id="SVGID_17_" cx="17.045" cy="7.31" r="3.557" gradientUnits="userSpaceOnUse">
					<stop  offset="0" style="stop-color:#7073B0"/>
					<stop  offset="1" style="stop-color:#457EBC"/>
				</radialGradient>
				<rect x="16.98" y="2.28" class="st14" width="0.13" height="10.06"/>
				<radialGradient id="SVGID_18_" cx="17.175" cy="7.31" r="3.557" gradientUnits="userSpaceOnUse">
					<stop  offset="0" style="stop-color:#7073B0"/>
					<stop  offset="1" style="stop-color:#457EBC"/>
				</radialGradient>
				<rect x="17.11" y="2.28" class="st15" width="0.13" height="10.06"/>
				<radialGradient id="SVGID_19_" cx="17.305" cy="7.31" r="3.557" gradientUnits="userSpaceOnUse">
					<stop  offset="0" style="stop-color:#7073B0"/>
					<stop  offset="1" style="stop-color:#457EBC"/>
				</radialGradient>
				<rect x="17.24" y="2.28" class="st16" width="0.13" height="10.06"/>
				<radialGradient id="SVGID_20_" cx="17.435" cy="7.31" r="3.557" gradientUnits="userSpaceOnUse">
					<stop  offset="0" style="stop-color:#7073B0"/>
					<stop  offset="1" style="stop-color:#457EBC"/>
				</radialGradient>
				<rect x="17.37" y="2.28" class="st17" width="0.13" height="10.06"/>
				<radialGradient id="SVGID_21_" cx="17.565" cy="7.31" r="3.557" gradientUnits="userSpaceOnUse">
					<stop  offset="0" style="stop-color:#7073B0"/>
					<stop  offset="1" style="stop-color:#457EBC"/>
				</radialGradient>
				<rect x="17.5" y="2.28" class="st18" width="0.13" height="10.06"/>
				<radialGradient id="SVGID_22_" cx="17.705" cy="7.31" r="3.557" gradientUnits="userSpaceOnUse">
					<stop  offset="0" style="stop-color:#7073B0"/>
					<stop  offset="1" style="stop-color:#457EBC"/>
				</radialGradient>
				<rect x="17.64" y="2.28" class="st19" width="0.13" height="10.06"/>
				<radialGradient id="SVGID_23_" cx="17.835" cy="7.31" r="3.557" gradientUnits="userSpaceOnUse">
					<stop  offset="0" style="stop-color:#7073B0"/>
					<stop  offset="1" style="stop-color:#457EBC"/>
				</radialGradient>
				<rect x="17.77" y="2.28" class="st20" width="0.13" height="10.06"/>
				<radialGradient id="SVGID_24_" cx="17.965" cy="7.31" r="3.557" gradientUnits="userSpaceOnUse">
					<stop  offset="0" style="stop-color:#7073B0"/>
					<stop  offset="1" style="stop-color:#457EBC"/>
				</radialGradient>
				<rect x="17.9" y="2.28" class="st21" width="0.13" height="10.06"/>
				<radialGradient id="SVGID_25_" cx="18.095" cy="7.31" r="3.557" gradientUnits="userSpaceOnUse">
					<stop  offset="0" style="stop-color:#7073B0"/>
					<stop  offset="1" style="stop-color:#457EBC"/>
				</radialGradient>
				<rect x="18.03" y="2.28" class="st22" width="0.13" height="10.06"/>
				<radialGradient id="SVGID_26_" cx="18.225" cy="7.31" r="3.557" gradientUnits="userSpaceOnUse">
					<stop  offset="0" style="stop-color:#7073B0"/>
					<stop  offset="1" style="stop-color:#457EBC"/>
				</radialGradient>
				<rect x="18.16" y="2.28" class="st23" width="0.13" height="10.06"/>
				<radialGradient id="SVGID_27_" cx="18.365" cy="7.31" r="3.557" gradientUnits="userSpaceOnUse">
					<stop  offset="0" style="stop-color:#7073B0"/>
					<stop  offset="1" style="stop-color:#457EBC"/>
				</radialGradient>
				<rect x="18.3" y="2.28" class="st24" width="0.13" height="10.06"/>
				<radialGradient id="SVGID_28_" cx="18.495" cy="7.31" r="3.557" gradientUnits="userSpaceOnUse">
					<stop  offset="0" style="stop-color:#7073B0"/>
					<stop  offset="1" style="stop-color:#457EBC"/>
				</radialGradient>
				<rect x="18.43" y="2.28" class="st25" width="0.13" height="10.06"/>
				<radialGradient id="SVGID_29_" cx="18.625" cy="7.31" r="3.557" gradientUnits="userSpaceOnUse">
					<stop  offset="0" style="stop-color:#7073B0"/>
					<stop  offset="1" style="stop-color:#457EBC"/>
				</radialGradient>
				<rect x="18.56" y="2.28" class="st26" width="0.13" height="10.06"/>
				<radialGradient id="SVGID_30_" cx="18.755" cy="7.31" r="3.557" gradientUnits="userSpaceOnUse">
					<stop  offset="0" style="stop-color:#7073B0"/>
					<stop  offset="1" style="stop-color:#457EBC"/>
				</radialGradient>
				<rect x="18.69" y="2.28" class="st27" width="0.13" height="10.06"/>
				<radialGradient id="SVGID_31_" cx="18.895" cy="7.31" r="3.557" gradientUnits="userSpaceOnUse">
					<stop  offset="0" style="stop-color:#7073B0"/>
					<stop  offset="1" style="stop-color:#457EBC"/>
				</radialGradient>
				<rect x="18.83" y="2.28" class="st28" width="0.13" height="10.06"/>
				<radialGradient id="SVGID_32_" cx="19.025" cy="7.31" r="3.557" gradientUnits="userSpaceOnUse">
					<stop  offset="0" style="stop-color:#7073B0"/>
					<stop  offset="1" style="stop-color:#457EBC"/>
				</radialGradient>
				<rect x="18.96" y="2.28" class="st29" width="0.13" height="10.06"/>
				<radialGradient id="SVGID_33_" cx="19.155" cy="7.31" r="3.557" gradientUnits="userSpaceOnUse">
					<stop  offset="0" style="stop-color:#7073B0"/>
					<stop  offset="1" style="stop-color:#457EBC"/>
				</radialGradient>
				<rect x="19.09" y="2.28" class="st30" width="0.13" height="10.06"/>
				<radialGradient id="SVGID_34_" cx="19.285" cy="7.31" r="3.557" gradientUnits="userSpaceOnUse">
					<stop  offset="0" style="stop-color:#7073B0"/>
					<stop  offset="1" style="stop-color:#457EBC"/>
				</radialGradient>
				<rect x="19.22" y="2.28" class="st31" width="0.13" height="10.06"/>
				<radialGradient id="SVGID_35_" cx="19.415" cy="7.31" r="3.557" gradientUnits="userSpaceOnUse">
					<stop  offset="0" style="stop-color:#7073B0"/>
					<stop  offset="1" style="stop-color:#457EBC"/>
				</radialGradient>
				<rect x="19.35" y="2.28" class="st32" width="0.13" height="10.06"/>
				<radialGradient id="SVGID_36_" cx="19.555" cy="7.31" r="3.557" gradientUnits="userSpaceOnUse">
					<stop  offset="0" style="stop-color:#7073B0"/>
					<stop  offset="1" style="stop-color:#457EBC"/>
				</radialGradient>
				<rect x="19.49" y="2.28" class="st33" width="0.13" height="10.06"/>
				<radialGradient id="SVGID_37_" cx="19.685" cy="7.31" r="3.557" gradientUnits="userSpaceOnUse">
					<stop  offset="0" style="stop-color:#7073B0"/>
					<stop  offset="1" style="stop-color:#457EBC"/>
				</radialGradient>
				<rect x="19.62" y="2.28" class="st34" width="0.13" height="10.06"/>
				<radialGradient id="SVGID_38_" cx="19.75" cy="12.34" r="0" gradientUnits="userSpaceOnUse">
					<stop  offset="0" style="stop-color:#7073B0"/>
					<stop  offset="1" style="stop-color:#457EBC"/>
				</radialGradient>
				<path class="st35" d="M19.75,12.34L19.75,12.34z"/>
			</g>
		</g>
		
			<radialGradient id="SVGID_39_" cx="22.13" cy="30.69" r="0.4701" gradientTransform="matrix(1 0 0 -1 0 38)" gradientUnits="userSpaceOnUse">
			<stop  offset="0" style="stop-color:#7073B0"/>
			<stop  offset="1" style="stop-color:#457EBC"/>
		</radialGradient>
		<path class="st36" d="M22.6,7.31c0.01,0.27-0.2,0.48-0.47,0.49c-0.27,0.01-0.48-0.2-0.49-0.47c-0.01-0.27,0.2-0.48,0.47-0.49
			c0.01,0,0.01,0,0.02,0C22.39,6.85,22.59,7.05,22.6,7.31z"/>
		<g>
			<defs>
				<path id="SVGID_40_" d="M13.48,7.31c0,0.26-0.21,0.47-0.47,0.47s-0.47-0.21-0.47-0.47c0-0.26,0.2-0.46,0.46-0.47
					c0.26-0.01,0.47,0.2,0.48,0.46C13.48,7.3,13.48,7.31,13.48,7.31z"/>
			</defs>
			<clipPath id="SVGID_41_">
				<use xlink:href="#SVGID_40_"  style="overflow:visible;"/>
			</clipPath>
			<g class="st37">
				<path class="st38" d="M12.54,6.84L12.54,6.84z"/>
				<rect x="12.54" y="6.84" class="st38" width="0.03" height="0.94"/>
				<rect x="12.57" y="6.84" class="st39" width="0.03" height="0.94"/>
				<rect x="12.6" y="6.84" class="st40" width="0.03" height="0.94"/>
				<rect x="12.63" y="6.84" class="st41" width="0.03" height="0.94"/>
				<rect x="12.65" y="6.84" class="st42" width="0.03" height="0.94"/>
				<rect x="12.68" y="6.84" class="st43" width="0.03" height="0.94"/>
				<rect x="12.71" y="6.84" class="st44" width="0.03" height="0.94"/>
				<rect x="12.74" y="6.84" class="st45" width="0.03" height="0.94"/>
				<rect x="12.77" y="6.84" class="st46" width="0.03" height="0.94"/>
				<rect x="12.8" y="6.84" class="st47" width="0.03" height="0.94"/>
				<rect x="12.82" y="6.84" class="st48" width="0.03" height="0.94"/>
				<rect x="12.85" y="6.84" class="st49" width="0.03" height="0.94"/>
				<rect x="12.88" y="6.84" class="st50" width="0.03" height="0.94"/>
				<rect x="12.91" y="6.84" class="st51" width="0.03" height="0.94"/>
				<rect x="12.94" y="6.84" class="st52" width="0.03" height="0.94"/>
				<rect x="12.97" y="6.84" class="st53" width="0.03" height="0.94"/>
				<rect x="13" y="6.84" class="st54" width="0.03" height="0.94"/>
				<rect x="13.02" y="6.84" class="st55" width="0.03" height="0.94"/>
				<rect x="13.05" y="6.84" class="st56" width="0.03" height="0.94"/>
				<rect x="13.08" y="6.84" class="st57" width="0.03" height="0.94"/>
				<rect x="13.11" y="6.84" class="st58" width="0.03" height="0.94"/>
				<rect x="13.14" y="6.84" class="st59" width="0.03" height="0.94"/>
				<rect x="13.17" y="6.84" class="st60" width="0.03" height="0.94"/>
				<rect x="13.2" y="6.84" class="st61" width="0.03" height="0.94"/>
				<rect x="13.22" y="6.84" class="st62" width="0.03" height="0.94"/>
				<rect x="13.25" y="6.84" class="st63" width="0.03" height="0.94"/>
				<rect x="13.28" y="6.84" class="st64" width="0.03" height="0.94"/>
				<rect x="13.31" y="6.84" class="st65" width="0.03" height="0.94"/>
				<rect x="13.34" y="6.84" class="st66" width="0.03" height="0.94"/>
				<rect x="13.37" y="6.84" class="st67" width="0.03" height="0.94"/>
				<rect x="13.39" y="6.84" class="st68" width="0.03" height="0.94"/>
				<rect x="13.42" y="6.84" class="st69" width="0.03" height="0.94"/>
				<rect x="13.45" y="6.84" class="st70" width="0.03" height="0.94"/>
				<path class="st70" d="M13.48,7.78L13.48,7.78z"/>
			</g>
		</g>
		
			<radialGradient id="SVGID_42_" cx="3.32" cy="6.81" r="0" gradientTransform="matrix(1 0 0 -1 0 38)" gradientUnits="userSpaceOnUse">
			<stop  offset="0" style="stop-color:#7073B0"/>
			<stop  offset="1" style="stop-color:#457EBC"/>
		</radialGradient>
		<path class="st71" d="M3.32,31.19L3.32,31.19z"/>
		<path class="st72" d="M3.42,31.19v0.12h-0.2v-0.15h0.2V31.19z"/>
		
			<radialGradient id="SVGID_43_" cx="10.79" cy="7.32" r="0" gradientTransform="matrix(1 0 0 -1 0 38)" gradientUnits="userSpaceOnUse">
			<stop  offset="0" style="stop-color:#7073B0"/>
			<stop  offset="1" style="stop-color:#457EBC"/>
		</radialGradient>
		<path class="st73" d="M10.79,30.68L10.79,30.68z"/>
		<polygon class="st72" points="10.8,30.58 10.79,30.68 10.79,30.78 10.67,30.78 10.67,30.68 10.66,30.58 		"/>
		
			<radialGradient id="SVGID_44_" cx="34.66" cy="3.33" r="0.47" gradientTransform="matrix(1 0 0 -1 0 38)" gradientUnits="userSpaceOnUse">
			<stop  offset="0" style="stop-color:#7073B0"/>
			<stop  offset="1" style="stop-color:#457EBC"/>
		</radialGradient>
		<path class="st74" d="M35.13,34.67c0,0.26-0.21,0.47-0.47,0.47c-0.26,0-0.47-0.21-0.47-0.47c0-0.26,0.21-0.47,0.47-0.47
			C34.92,34.2,35.13,34.41,35.13,34.67C35.13,34.67,35.13,34.67,35.13,34.67z"/>
		
			<radialGradient id="SVGID_45_" cx="17.5558" cy="20.43" r="16.4735" gradientTransform="matrix(1 0 0 -1 0 38)" gradientUnits="userSpaceOnUse">
			<stop  offset="0" style="stop-color:#7073B0"/>
			<stop  offset="1" style="stop-color:#457EBC"/>
		</radialGradient>
		<path class="st75" d="M32.37,34.2H31.7v-7.57c-0.03-0.21-0.19-0.38-0.4-0.41h-6.91c-0.26,0-0.47,0.21-0.47,0.47v7.51h-2.47v-5.28
			c-0.03-0.23-0.22-0.41-0.45-0.42h-3v-2.95c0.03-1.64,1.36-2.95,3-2.95c0.26,0.01,0.47-0.2,0.48-0.46c0,0,0-0.01,0-0.01
			c-0.02-2.26,1.79-4.11,4.05-4.13c0,0,0.01,0,0.01,0h4.06v0.11c-0.29,1.99-1.99,3.48-4,3.51h-2.35c-0.26,0-0.47,0.21-0.47,0.47
			c0,0.26,0.21,0.47,0.47,0.47l0,0h2.29c2.76,0,5-2.24,5-5c0-0.02,0-0.04,0-0.06v-0.4h-5c-2.58-0.01-4.75,1.94-5,4.51v0.07h-0.07
			c-0.86,0.12-1.65,0.52-2.25,1.14L18,23v-8.4h0.09c1.38-0.11,2.69-0.6,3.8-1.43l0,0c0.02,0,0.03,0,0.05,0l0,0
			c0.08-0.09,0.13-0.21,0.13-0.33c0-0.09-0.03-0.17-0.07-0.25l0,0l0,0c-0.16-0.16-0.41-0.18-0.6-0.06h-0.05
			c-2.73,2.16-6.7,1.69-8.86-1.04s-1.69-6.7,1.04-8.86s6.7-1.69,8.86,1.04c1.56,1.97,1.8,4.68,0.61,6.89l0,0
			c-0.04,0.06-0.05,0.14-0.05,0.21c0,0.26,0.21,0.47,0.47,0.47c0.16,0,0.3-0.07,0.39-0.2l0,0c2.07-3.47,0.93-7.96-2.54-10.02
			s-7.96-0.93-10.02,2.54s-0.93,7.96,2.54,10.02c0.98,0.58,2.08,0.93,3.21,1.01h0.1V23l-0.18-0.17c-0.6-0.62-1.39-1.02-2.25-1.14
			H14.6v-0.07c-0.25-2.57-2.42-4.52-5-4.51h-5v0.47c0,2.76,2.24,5,5,5h2.28c0.26,0,0.47-0.21,0.47-0.47c0-0.26-0.21-0.47-0.47-0.47
			h-2.3c-2.01-0.04-3.7-1.52-4-3.51v-0.11h4c2.26,0.01,4.08,1.83,4.09,4.09c-0.01,0.25,0.2,0.46,0.45,0.47c0.01,0,0.01,0,0.02,0
			c1.62,0.03,2.92,1.33,2.95,2.95v2.97h-3H14c-0.1,0.04-0.18,0.11-0.23,0.2l0,0v0.05c0,0,0,0,0,0.05v5.4h-2.58v-3
			c0-0.24-0.17-0.44-0.41-0.47h-6.9c-0.24,0-0.44,0.17-0.47,0.41v3H2.74c-0.26,0-0.47,0.21-0.47,0.47c0,0.26,0.21,0.47,0.47,0.47
			h29.63c0.26,0,0.47-0.21,0.47-0.47s-0.21-0.47-0.47-0.47c0,0,0,0,0,0V34.2z M10.25,34.2h-5.9v-2.48h5.9L10.25,34.2z M20.5,34.2
			h-5.89v-4.76h5.89L20.5,34.2z M30.76,34.2h-5.9v-7h5.9V34.2z"/>
		<g>
			<defs>
				<path id="SVGID_46_" d="M0.94,34.67c0,0.26-0.21,0.47-0.47,0.47C0.21,35.14,0,34.93,0,34.67c0-0.26,0.21-0.47,0.47-0.47
					C0.73,34.2,0.94,34.41,0.94,34.67L0.94,34.67z"/>
			</defs>
			<clipPath id="SVGID_47_">
				<use xlink:href="#SVGID_46_"  style="overflow:visible;"/>
			</clipPath>
			<g class="st76">
				<path class="st38" d="M0,34.2L0,34.2z"/>
				<rect y="34.2" class="st38" width="0.03" height="0.94"/>
				<rect x="0.03" y="34.2" class="st39" width="0.03" height="0.94"/>
				<rect x="0.06" y="34.2" class="st40" width="0.03" height="0.94"/>
				<rect x="0.09" y="34.2" class="st41" width="0.03" height="0.94"/>
				<rect x="0.11" y="34.2" class="st42" width="0.03" height="0.94"/>
				<rect x="0.14" y="34.2" class="st43" width="0.03" height="0.94"/>
				<rect x="0.17" y="34.2" class="st44" width="0.03" height="0.94"/>
				<rect x="0.2" y="34.2" class="st45" width="0.03" height="0.94"/>
				<rect x="0.23" y="34.2" class="st46" width="0.03" height="0.94"/>
				<rect x="0.26" y="34.2" class="st47" width="0.03" height="0.94"/>
				<rect x="0.28" y="34.2" class="st48" width="0.03" height="0.94"/>
				<rect x="0.31" y="34.2" class="st49" width="0.03" height="0.94"/>
				<rect x="0.34" y="34.2" class="st50" width="0.03" height="0.94"/>
				<rect x="0.37" y="34.2" class="st51" width="0.03" height="0.94"/>
				<rect x="0.4" y="34.2" class="st52" width="0.03" height="0.94"/>
				<rect x="0.43" y="34.2" class="st53" width="0.03" height="0.94"/>
				<rect x="0.46" y="34.2" class="st54" width="0.03" height="0.94"/>
				<rect x="0.48" y="34.2" class="st55" width="0.03" height="0.94"/>
				<rect x="0.51" y="34.2" class="st56" width="0.03" height="0.94"/>
				<rect x="0.54" y="34.2" class="st57" width="0.03" height="0.94"/>
				<rect x="0.57" y="34.2" class="st58" width="0.03" height="0.94"/>
				<rect x="0.6" y="34.2" class="st59" width="0.03" height="0.94"/>
				<rect x="0.63" y="34.2" class="st60" width="0.03" height="0.94"/>
				<rect x="0.66" y="34.2" class="st61" width="0.03" height="0.94"/>
				<rect x="0.68" y="34.2" class="st62" width="0.03" height="0.94"/>
				<rect x="0.71" y="34.2" class="st63" width="0.03" height="0.94"/>
				<rect x="0.74" y="34.2" class="st64" width="0.03" height="0.94"/>
				<rect x="0.77" y="34.2" class="st65" width="0.03" height="0.94"/>
				<rect x="0.8" y="34.2" class="st66" width="0.03" height="0.94"/>
				<rect x="0.83" y="34.2" class="st67" width="0.03" height="0.94"/>
				<rect x="0.85" y="34.2" class="st68" width="0.03" height="0.94"/>
				<rect x="0.88" y="34.2" class="st69" width="0.03" height="0.94"/>
				<rect x="0.91" y="34.2" class="st70" width="0.03" height="0.94"/>
				<path class="st70" d="M0.94,35.14L0.94,35.14z"/>
			</g>
		</g>
		<g>
			<defs>
				<path id="SVGID_48_" d="M3.89,11.89C3.27,11.88,2.77,12.38,2.76,13c-0.01,0.62,0.49,1.12,1.11,1.13
					c0.62,0.01,1.12-0.49,1.13-1.11c0-0.01,0-0.01,0-0.02C4.99,12.39,4.5,11.9,3.89,11.89z M3.89,13.57
					C3.58,13.56,3.33,13.31,3.33,13c0-0.31,0.25-0.56,0.56-0.56S4.45,12.69,4.45,13c0,0.31-0.25,0.56-0.56,0.56L3.89,13.57z"/>
			</defs>
			<clipPath id="SVGID_49_">
				<use xlink:href="#SVGID_48_"  style="overflow:visible;"/>
			</clipPath>
			<g class="st77">
				<rect x="3.33" y="13.52" class="st46" width="1.11" height="0.05"/>
				<rect x="3.33" y="13.45" class="st47" width="1.11" height="0.07"/>
				<rect x="3.33" y="13.38" class="st48" width="1.11" height="0.07"/>
				<rect x="3.33" y="13.32" class="st49" width="1.11" height="0.07"/>
				<rect x="3.33" y="13.25" class="st50" width="1.11" height="0.07"/>
				<rect x="3.33" y="13.18" class="st51" width="1.11" height="0.07"/>
				<rect x="3.33" y="13.11" class="st52" width="1.11" height="0.07"/>
				<rect x="3.33" y="13.04" class="st53" width="1.11" height="0.07"/>
				<rect x="3.33" y="12.98" class="st54" width="1.11" height="0.07"/>
				<rect x="3.33" y="12.91" class="st55" width="1.11" height="0.07"/>
				<rect x="3.33" y="12.84" class="st56" width="1.11" height="0.07"/>
				<rect x="3.33" y="12.77" class="st57" width="1.11" height="0.07"/>
				<rect x="3.33" y="12.7" class="st58" width="1.11" height="0.07"/>
				<rect x="3.33" y="12.64" class="st59" width="1.11" height="0.07"/>
				<rect x="3.33" y="12.57" class="st60" width="1.11" height="0.07"/>
				<rect x="3.33" y="12.5" class="st61" width="1.11" height="0.07"/>
				<rect x="3.33" y="12.46" class="st62" width="1.11" height="0.04"/>
				<path class="st38" d="M2.77,14.13L2.77,14.13z"/>
				<rect x="2.77" y="14.06" class="st38" width="2.24" height="0.07"/>
				<rect x="2.77" y="13.99" class="st39" width="2.24" height="0.07"/>
				<rect x="2.77" y="13.93" class="st40" width="2.24" height="0.07"/>
				<rect x="2.77" y="13.86" class="st41" width="2.24" height="0.07"/>
				<rect x="2.77" y="13.79" class="st42" width="2.24" height="0.07"/>
				<rect x="2.77" y="13.72" class="st43" width="2.24" height="0.07"/>
				<rect x="2.77" y="13.65" class="st44" width="2.24" height="0.07"/>
				<rect x="2.77" y="13.59" class="st45" width="2.24" height="0.07"/>
				<rect x="2.77" y="13.52" class="st46" width="2.24" height="0.07"/>
				<rect x="2.77" y="13.45" class="st47" width="2.24" height="0.07"/>
				<rect x="2.77" y="13.38" class="st48" width="2.24" height="0.07"/>
				<rect x="2.77" y="13.32" class="st49" width="2.24" height="0.07"/>
				<rect x="2.77" y="13.25" class="st50" width="2.24" height="0.07"/>
				<rect x="2.77" y="13.18" class="st51" width="2.24" height="0.07"/>
				<rect x="2.77" y="13.11" class="st52" width="2.24" height="0.07"/>
				<rect x="2.77" y="13.04" class="st53" width="2.24" height="0.07"/>
				<rect x="2.77" y="12.98" class="st54" width="2.24" height="0.07"/>
				<rect x="2.77" y="12.91" class="st55" width="2.24" height="0.07"/>
				<rect x="2.77" y="12.84" class="st56" width="2.24" height="0.07"/>
				<rect x="2.77" y="12.77" class="st57" width="2.24" height="0.07"/>
				<rect x="2.77" y="12.7" class="st58" width="2.24" height="0.07"/>
				<rect x="2.77" y="12.64" class="st59" width="2.24" height="0.07"/>
				<rect x="2.77" y="12.57" class="st60" width="2.24" height="0.07"/>
				<rect x="2.77" y="12.5" class="st61" width="2.24" height="0.07"/>
				<rect x="2.77" y="12.43" class="st62" width="2.24" height="0.07"/>
				<rect x="2.77" y="12.37" class="st63" width="2.24" height="0.07"/>
				<rect x="2.77" y="12.3" class="st64" width="2.24" height="0.07"/>
				<rect x="2.77" y="12.23" class="st65" width="2.24" height="0.07"/>
				<rect x="2.77" y="12.16" class="st66" width="2.24" height="0.07"/>
				<rect x="2.77" y="12.09" class="st67" width="2.24" height="0.07"/>
				<rect x="2.77" y="12.03" class="st68" width="2.24" height="0.07"/>
				<rect x="2.77" y="11.96" class="st69" width="2.24" height="0.07"/>
				<polygon class="st70" points="3.89,11.89 5.01,11.89 5.01,11.96 2.77,11.96 2.77,11.89 				"/>
				<path class="st70" d="M5,11.89L5,11.89z"/>
			</g>
		</g>
		<g>
			<defs>
				<path id="SVGID_50_" d="M7.31,0.49c-0.62,0-1.12,0.5-1.12,1.12c0,0.62,0.5,1.12,1.12,1.12s1.12-0.5,1.12-1.12
					S7.93,0.49,7.31,0.49C7.31,0.49,7.31,0.49,7.31,0.49z M7.31,2.17C7,2.16,6.76,1.92,6.75,1.61C6.75,1.3,7,1.05,7.31,1.05
					S7.87,1.3,7.87,1.61S7.62,2.17,7.31,2.17L7.31,2.17z"/>
			</defs>
			<clipPath id="SVGID_51_">
				<use xlink:href="#SVGID_50_"  style="overflow:visible;"/>
			</clipPath>
			<g class="st78">
				<rect x="6.75" y="2.12" class="st46" width="1.11" height="0.05"/>
				<rect x="6.75" y="2.06" class="st47" width="1.11" height="0.07"/>
				<rect x="6.75" y="1.99" class="st48" width="1.11" height="0.07"/>
				<rect x="6.75" y="1.92" class="st49" width="1.11" height="0.07"/>
				<rect x="6.75" y="1.85" class="st50" width="1.11" height="0.07"/>
				<rect x="6.75" y="1.78" class="st51" width="1.11" height="0.07"/>
				<rect x="6.75" y="1.72" class="st52" width="1.11" height="0.07"/>
				<rect x="6.75" y="1.65" class="st53" width="1.11" height="0.07"/>
				<rect x="6.75" y="1.58" class="st54" width="1.11" height="0.07"/>
				<rect x="6.75" y="1.51" class="st55" width="1.11" height="0.07"/>
				<rect x="6.75" y="1.44" class="st56" width="1.11" height="0.07"/>
				<rect x="6.75" y="1.38" class="st57" width="1.11" height="0.07"/>
				<rect x="6.75" y="1.31" class="st58" width="1.11" height="0.07"/>
				<rect x="6.75" y="1.24" class="st59" width="1.11" height="0.07"/>
				<rect x="6.75" y="1.17" class="st60" width="1.11" height="0.07"/>
				<rect x="6.75" y="1.1" class="st61" width="1.11" height="0.07"/>
				<rect x="6.75" y="1.06" class="st62" width="1.11" height="0.04"/>
				<path class="st38" d="M6.19,2.73L6.19,2.73z"/>
				<rect x="6.19" y="2.67" class="st38" width="2.24" height="0.07"/>
				<rect x="6.19" y="2.6" class="st39" width="2.24" height="0.07"/>
				<rect x="6.19" y="2.53" class="st40" width="2.24" height="0.07"/>
				<rect x="6.19" y="2.46" class="st41" width="2.24" height="0.07"/>
				<rect x="6.19" y="2.39" class="st42" width="2.24" height="0.07"/>
				<rect x="6.19" y="2.33" class="st43" width="2.24" height="0.07"/>
				<rect x="6.19" y="2.26" class="st44" width="2.24" height="0.07"/>
				<rect x="6.19" y="2.19" class="st45" width="2.24" height="0.07"/>
				<rect x="6.19" y="2.12" class="st46" width="2.24" height="0.07"/>
				<rect x="6.19" y="2.06" class="st47" width="2.24" height="0.07"/>
				<rect x="6.19" y="1.99" class="st48" width="2.24" height="0.07"/>
				<rect x="6.19" y="1.92" class="st49" width="2.24" height="0.07"/>
				<rect x="6.19" y="1.85" class="st50" width="2.24" height="0.07"/>
				<rect x="6.19" y="1.78" class="st51" width="2.24" height="0.07"/>
				<rect x="6.19" y="1.72" class="st52" width="2.24" height="0.07"/>
				<rect x="6.19" y="1.65" class="st53" width="2.24" height="0.07"/>
				<rect x="6.19" y="1.58" class="st54" width="2.24" height="0.07"/>
				<rect x="6.19" y="1.51" class="st55" width="2.24" height="0.07"/>
				<rect x="6.19" y="1.44" class="st56" width="2.24" height="0.07"/>
				<rect x="6.19" y="1.38" class="st57" width="2.24" height="0.07"/>
				<rect x="6.19" y="1.31" class="st58" width="2.24" height="0.07"/>
				<rect x="6.19" y="1.24" class="st59" width="2.24" height="0.07"/>
				<rect x="6.19" y="1.17" class="st60" width="2.24" height="0.07"/>
				<rect x="6.19" y="1.1" class="st61" width="2.24" height="0.07"/>
				<rect x="6.19" y="1.04" class="st62" width="2.24" height="0.07"/>
				<rect x="6.19" y="0.97" class="st63" width="2.24" height="0.07"/>
				<rect x="6.19" y="0.9" class="st64" width="2.24" height="0.07"/>
				<rect x="6.19" y="0.83" class="st65" width="2.24" height="0.07"/>
				<rect x="6.19" y="0.77" class="st66" width="2.24" height="0.07"/>
				<rect x="6.19" y="0.7" class="st67" width="2.24" height="0.07"/>
				<rect x="6.19" y="0.63" class="st68" width="2.24" height="0.07"/>
				<rect x="6.19" y="0.56" class="st69" width="2.24" height="0.07"/>
				<polygon class="st70" points="7.31,0.49 8.43,0.49 8.43,0.56 6.19,0.56 6.19,0.49 				"/>
				<path class="st70" d="M8.43,0.49L8.43,0.49z"/>
			</g>
		</g>
		<g>
			<defs>
				<path id="SVGID_52_" d="M29,6.27c-0.62,0-1.12,0.5-1.12,1.12s0.5,1.12,1.12,1.12c0.62,0,1.12-0.5,1.12-1.12S29.62,6.27,29,6.27
					L29,6.27z M29,8c-0.31-0.01-0.55-0.25-0.56-0.56c0-0.31,0.25-0.56,0.56-0.56c0.31,0,0.56,0.25,0.56,0.56S29.31,8,29,8L29,8z"/>
			</defs>
			<clipPath id="SVGID_53_">
				<use xlink:href="#SVGID_52_"  style="overflow:visible;"/>
			</clipPath>
			<g class="st79">
				<rect x="28.4" y="7.9" class="st46" width="1.11" height="0.05"/>
				<rect x="28.4" y="7.83" class="st47" width="1.11" height="0.07"/>
				<rect x="28.4" y="7.77" class="st48" width="1.11" height="0.07"/>
				<rect x="28.4" y="7.7" class="st49" width="1.11" height="0.07"/>
				<rect x="28.4" y="7.63" class="st50" width="1.11" height="0.07"/>
				<rect x="28.4" y="7.56" class="st51" width="1.11" height="0.07"/>
				<rect x="28.4" y="7.5" class="st52" width="1.11" height="0.07"/>
				<rect x="28.4" y="7.43" class="st53" width="1.11" height="0.07"/>
				<rect x="28.4" y="7.36" class="st54" width="1.11" height="0.07"/>
				<rect x="28.4" y="7.29" class="st55" width="1.11" height="0.07"/>
				<rect x="28.4" y="7.22" class="st56" width="1.11" height="0.07"/>
				<rect x="28.4" y="7.16" class="st57" width="1.11" height="0.07"/>
				<rect x="28.4" y="7.09" class="st58" width="1.11" height="0.07"/>
				<rect x="28.4" y="7.02" class="st59" width="1.11" height="0.07"/>
				<rect x="28.4" y="6.95" class="st60" width="1.11" height="0.07"/>
				<rect x="28.4" y="6.88" class="st61" width="1.11" height="0.07"/>
				<rect x="28.4" y="6.84" class="st62" width="1.11" height="0.04"/>
				<path class="st38" d="M27.84,8.51L27.84,8.51z"/>
				<rect x="27.84" y="8.45" class="st38" width="2.24" height="0.07"/>
				<rect x="27.84" y="8.38" class="st39" width="2.24" height="0.07"/>
				<rect x="27.84" y="8.31" class="st40" width="2.24" height="0.07"/>
				<rect x="27.84" y="8.24" class="st41" width="2.24" height="0.07"/>
				<rect x="27.84" y="8.17" class="st42" width="2.24" height="0.07"/>
				<rect x="27.84" y="8.11" class="st43" width="2.24" height="0.07"/>
				<rect x="27.84" y="8.04" class="st44" width="2.24" height="0.07"/>
				<rect x="27.84" y="7.97" class="st45" width="2.24" height="0.07"/>
				<rect x="27.84" y="7.9" class="st46" width="2.24" height="0.07"/>
				<rect x="27.84" y="7.83" class="st47" width="2.24" height="0.07"/>
				<rect x="27.84" y="7.77" class="st48" width="2.24" height="0.07"/>
				<rect x="27.84" y="7.7" class="st49" width="2.24" height="0.07"/>
				<rect x="27.84" y="7.63" class="st50" width="2.24" height="0.07"/>
				<rect x="27.84" y="7.56" class="st51" width="2.24" height="0.07"/>
				<rect x="27.84" y="7.5" class="st52" width="2.24" height="0.07"/>
				<rect x="27.84" y="7.43" class="st53" width="2.24" height="0.07"/>
				<rect x="27.84" y="7.36" class="st54" width="2.24" height="0.07"/>
				<rect x="27.84" y="7.29" class="st55" width="2.24" height="0.07"/>
				<rect x="27.84" y="7.22" class="st56" width="2.24" height="0.07"/>
				<rect x="27.84" y="7.16" class="st57" width="2.24" height="0.07"/>
				<rect x="27.84" y="7.09" class="st58" width="2.24" height="0.07"/>
				<rect x="27.84" y="7.02" class="st59" width="2.24" height="0.07"/>
				<rect x="27.84" y="6.95" class="st60" width="2.24" height="0.07"/>
				<rect x="27.84" y="6.88" class="st61" width="2.24" height="0.07"/>
				<rect x="27.84" y="6.82" class="st62" width="2.24" height="0.07"/>
				<rect x="27.84" y="6.75" class="st63" width="2.24" height="0.07"/>
				<rect x="27.84" y="6.68" class="st64" width="2.24" height="0.07"/>
				<rect x="27.84" y="6.61" class="st65" width="2.24" height="0.07"/>
				<rect x="27.84" y="6.54" class="st66" width="2.24" height="0.07"/>
				<rect x="27.84" y="6.48" class="st67" width="2.24" height="0.07"/>
				<rect x="27.84" y="6.41" class="st68" width="2.24" height="0.07"/>
				<rect x="27.84" y="6.34" class="st69" width="2.24" height="0.07"/>
				<polygon class="st70" points="28.96,6.27 30.08,6.27 30.08,6.34 27.84,6.34 27.84,6.27 				"/>
				<path class="st70" d="M30.08,6.27L30.08,6.27z"/>
			</g>
		</g>
	</g>
</g>
</svg>
