<?xml version="1.0" encoding="UTF-8" standalone="no"?>
<svg
   xmlns:dc="http://purl.org/dc/elements/1.1/"
   xmlns:cc="http://creativecommons.org/ns#"
   xmlns:rdf="http://www.w3.org/1999/02/22-rdf-syntax-ns#"
   xmlns:svg="http://www.w3.org/2000/svg"
   xmlns="http://www.w3.org/2000/svg"
   viewBox="0 0 1115.6533 205.46667"
   height="205.46667"
   width="1115.6533"
   xml:space="preserve"
   id="svg2"
   version="1.1"><metadata
     id="metadata8"><rdf:RDF><cc:Work
         rdf:about=""><dc:format>image/svg+xml</dc:format><dc:type
           rdf:resource="http://purl.org/dc/dcmitype/StillImage" /></cc:Work></rdf:RDF></metadata><defs
     id="defs6"><clipPath
       id="clipPath28"
       clipPathUnits="userSpaceOnUse"><path
         id="path26"
         d="m 499.875,141.449 v 0 c -74.094,0 -134.156,60.071 -134.156,134.16 v 751.271 c 0,74.09 60.062,134.15 134.156,134.15 v 0 c 74.094,0 134.156,-60.06 134.156,-134.15 V 275.609 c 0,-74.089 -60.062,-134.16 -134.156,-134.16 z" /></clipPath><linearGradient
       id="linearGradient34"
       spreadMethod="pad"
       gradientTransform="matrix(-293.02,514.367,514.367,293.02,634.497,414.93)"
       gradientUnits="userSpaceOnUse"
       y2="0"
       x2="1"
       y1="0"
       x1="0"><stop
         id="stop30"
         offset="0"
         style="stop-opacity:1;stop-color:#6668bb" /><stop
         id="stop32"
         offset="1"
         style="stop-opacity:1;stop-color:#4a7ac6" /></linearGradient><clipPath
       id="clipPath44"
       clipPathUnits="userSpaceOnUse"><path
         id="path42"
         d="m 134.156,303.691 v 0 c -74.0896,0 -134.15209375,60.071 -134.15209375,134.161 v 376.3 c 0,74.09 60.06249375,134.157 134.15209375,134.157 v 0 c 74.094,0 134.157,-60.067 134.157,-134.157 v -376.3 c 0,-74.09 -60.063,-134.161 -134.157,-134.161 z" /></clipPath><linearGradient
       id="linearGradient50"
       spreadMethod="pad"
       gradientTransform="matrix(-230.864,465.004,465.004,230.864,259.79,372.95)"
       gradientUnits="userSpaceOnUse"
       y2="0"
       x2="1"
       y1="0"
       x1="0"><stop
         id="stop46"
         offset="0"
         style="stop-opacity:1;stop-color:#6668bb" /><stop
         id="stop48"
         offset="1"
         style="stop-opacity:1;stop-color:#4a7ac6" /></linearGradient><clipPath
       id="clipPath60"
       clipPathUnits="userSpaceOnUse"><path
         id="path58"
         d="m 1382.96,261.078 c -210.19,0 -380.5,170.313 -380.5,380.492 0,209.961 170.31,380.49 380.5,380.49 210.18,0 380.48,-170.529 380.48,-380.49 0,-210.179 -170.3,-380.492 -380.48,-380.492 z m 0,1021.832 C 1028.68,1282.91 741.391,995.836 741.391,641.57 741.391,287.301 1028.68,0 1382.96,0 c 354.26,0 641.56,287.301 641.56,641.57 0,354.266 -287.3,641.34 -641.56,641.34 z" /></clipPath><linearGradient
       id="linearGradient66"
       spreadMethod="pad"
       gradientTransform="matrix(-920.234,894.014,894.014,920.234,1843.07,194.51)"
       gradientUnits="userSpaceOnUse"
       y2="0"
       x2="1"
       y1="0"
       x1="0"><stop
         id="stop62"
         offset="0"
         style="stop-opacity:1;stop-color:#6668bb" /><stop
         id="stop64"
         offset="1"
         style="stop-opacity:1;stop-color:#4a7ac6" /></linearGradient></defs><g
     transform="matrix(1.3333333,0,0,-1.3333333,0,205.46667)"
     id="g10"><g
       transform="scale(0.1)"
       id="g12"><path
         id="path14"
         style="fill:#263872;fill-opacity:1;fill-rule:nonzero;stroke:none"
         d="m 3234.26,731.953 c -28.14,-20.031 -68.86,-30.117 -121.89,-30.117 h -381.65 c 9.81,36.141 24.87,69.266 45.17,99.375 20.29,30.246 44.38,56.172 72.27,77.773 27.89,21.602 58.79,38.368 92.56,50.149 33.78,11.781 69,17.676 105.66,17.676 38.76,0 72.54,-4.063 101.34,-12.309 28.94,-8.117 52.77,-18.855 71.88,-31.945 18.99,-13.094 33.26,-27.496 42.82,-43.207 9.42,-15.844 14.14,-31.555 14.14,-47.266 0,-33.516 -14.01,-60.23 -42.3,-80.129 z m 239.08,207 c -20.95,42.024 -51.45,78.297 -91.52,108.677 -39.93,30.5 -88.63,54.59 -145.98,72.4 -57.48,17.67 -122.55,26.44 -195.34,26.44 -80,0 -153.72,-14.14 -221.27,-42.68 -67.56,-28.54 -125.96,-67.3 -175.19,-116.134 -49.1,-48.836 -87.46,-106.054 -115.08,-171.648 -27.5,-65.59 -41.25,-135.117 -41.25,-208.567 0,-73.453 13.75,-142.582 41.25,-207.519 27.62,-64.942 65.98,-121.891 115.08,-170.731 49.23,-48.839 107.36,-87.332 174.66,-115.613 67.17,-28.1483 140.88,-42.2889 220.88,-42.2889 45.17,0 87.98,4.8398 128.31,14.2695 40.32,9.5625 77.63,22.0004 111.68,37.4534 34.04,15.308 64.81,32.859 92.04,52.629 1.7,1.179 3.41,2.488 4.97,3.668 2.63,1.703 5.11,3.531 7.47,5.621 21.08,17.289 34.82,43.34 35.48,72.672 0.13,0.918 0.13,1.839 0.13,2.75 0,52.5 -41.5,95.578 -93.61,97.539 -1.44,0.269 -2.75,0.269 -4.19,0.269 -20.3,0 -39.02,-6.16 -54.73,-16.762 -2.49,-1.707 -5.11,-3.668 -7.46,-5.636 -0.4,-0.262 -0.79,-0.524 -1.18,-0.782 -17.41,-12.441 -36.79,-23.171 -58.13,-31.949 -21.34,-8.902 -44.78,-15.711 -70.31,-20.679 -25.53,-4.981 -54.73,-7.34 -87.59,-7.34 -36.01,0 -70.44,5.5 -103.31,16.629 -32.73,11.129 -62.71,26.968 -89.94,47.269 -27.24,20.289 -50.8,44.77 -70.83,73.32 -20.04,28.54 -35.22,60.098 -45.7,94.918 h 420.02 c 65.59,0 120.85,7.852 165.75,23.563 44.91,15.715 81.18,37.191 108.68,64.422 27.49,27.23 47.39,58.656 59.57,94.531 12.04,35.609 18.19,73.844 18.19,114.563 0,47.785 -10.6,92.824 -31.55,134.726" /><path
         id="path16"
         style="fill:#263872;fill-opacity:1;fill-rule:nonzero;stroke:none"
         d="m 5551.97,1401.26 c 0,-18.33 -3.54,-35.48 -10.87,-51.58 -7.21,-16.11 -17.29,-30.25 -30.51,-42.3 -13.1,-12.17 -28.94,-21.6 -47.66,-28.54 -18.72,-6.94 -39.15,-10.34 -61.53,-10.34 -22.27,0 -42.42,3.4 -60.36,10.34 -18.07,6.94 -33.65,16.37 -46.74,28.54 -13.23,12.05 -23.31,26.19 -30.51,42.3 -7.33,16.1 -10.87,33.25 -10.87,51.58 0,18.46 3.54,35.61 10.87,51.72 7.2,16.1 17.28,30.11 30.51,42.29 13.09,12.17 28.67,21.73 46.74,29.06 17.94,7.21 38.09,10.74 60.36,10.74 22.38,0 42.81,-3.53 61.53,-10.74 18.72,-7.33 34.56,-16.89 47.66,-29.06 13.22,-12.18 23.3,-26.19 30.51,-42.29 7.33,-16.11 10.87,-33.26 10.87,-51.72" /><path
         id="path18"
         style="fill:#263872;fill-opacity:1;fill-rule:nonzero;stroke:none"
         d="m 6769.82,102.84 h -232.66 c -34.56,2.879 -64.94,20.301 -84.58,45.961 -0.13,0.129 -0.13,0.129 -0.13,0.129 l -7.72,11.652 -198.23,294.457 -200.45,-295.238 -7.07,-10.61 c -0.27,-0.39 -0.53,-0.781 -0.78,-1.043 -20.04,-26.199 -50.94,-43.468 -85.89,-45.308 h -225.33 l 122.68,178.98 c 0.52,0.789 1.05,1.571 1.56,2.36 l 233.84,340.933 -211.97,302.446 c -0.39,0.39 -0.78,0.918 -1.05,1.441 l -4.84,7.07 -125.43,178.98 h 223.5 c 35.35,0 67.16,-15.84 88.38,-40.72 l 14.92,-21.86 179.89,-265.919 183.17,269.449 11.39,16.76 c 0,0 0.14,0.13 0.14,0.26 21.21,25.66 53.28,42.03 89.28,42.03 h 221.67 L 6629.47,936.727 c -1.31,-2.227 -2.89,-4.325 -4.46,-6.418 l -213.28,-305.196 229.91,-335.172 9.43,-13.882 118.75,-173.219" /><path
         id="path20"
         style="fill:#263872;fill-opacity:1;fill-rule:nonzero;stroke:none"
         d="m 7240.02,1401.26 c 0,-18.33 -3.53,-35.48 -10.87,-51.58 -7.19,-16.11 -17.28,-30.25 -30.37,-42.3 -13.22,-12.17 -29.07,-21.6 -47.79,-28.54 -18.72,-6.94 -39.15,-10.34 -61.41,-10.34 -22.38,0 -42.55,3.4 -60.49,10.34 -18.06,6.94 -33.64,16.37 -46.73,28.54 -13.23,12.05 -23.31,26.19 -30.51,42.3 -7.2,16.1 -10.87,33.25 -10.87,51.58 0,18.46 3.67,35.61 10.87,51.72 7.2,16.1 17.15,30.11 29.98,42.29 12.83,12.17 28.28,21.73 46.75,29.06 18.33,7.21 38.62,10.74 61,10.74 22.26,0 42.69,-3.53 61.41,-10.74 18.72,-7.33 34.57,-16.89 47.79,-29.06 13.09,-12.18 23.18,-26.19 30.37,-42.29 7.34,-16.11 10.87,-33.26 10.87,-51.72" /><g
         id="g22"><g
           clip-path="url(#clipPath28)"
           id="g24"><path
             id="path36"
             style="fill:url(#linearGradient34);fill-opacity:1;fill-rule:nonzero;stroke:none"
             d="m 499.875,141.449 v 0 c -74.094,0 -134.156,60.071 -134.156,134.16 v 751.271 c 0,74.09 60.062,134.15 134.156,134.15 v 0 c 74.094,0 134.156,-60.06 134.156,-134.15 V 275.609 c 0,-74.089 -60.062,-134.16 -134.156,-134.16" /></g></g><g
         id="g38"><g
           clip-path="url(#clipPath44)"
           id="g40"><path
             id="path52"
             style="fill:url(#linearGradient50);fill-opacity:1;fill-rule:nonzero;stroke:none"
             d="m 134.156,303.691 v 0 c -74.0896,0 -134.15209375,60.071 -134.15209375,134.161 v 376.3 c 0,74.09 60.06249375,134.157 134.15209375,134.157 v 0 c 74.094,0 134.157,-60.067 134.157,-134.157 v -376.3 c 0,-74.09 -60.063,-134.161 -134.157,-134.161" /></g></g><g
         id="g54"><g
           clip-path="url(#clipPath60)"
           id="g56"><path
             id="path68"
             style="fill:url(#linearGradient66);fill-opacity:1;fill-rule:nonzero;stroke:none"
             d="m 1382.96,261.078 c -210.19,0 -380.5,170.313 -380.5,380.492 0,209.961 170.31,380.49 380.5,380.49 210.18,0 380.48,-170.529 380.48,-380.49 0,-210.179 -170.3,-380.492 -380.48,-380.492 z m 0,1021.832 C 1028.68,1282.91 741.391,995.836 741.391,641.57 741.391,287.301 1028.68,0 1382.96,0 c 354.26,0 641.56,287.301 641.56,641.57 0,354.266 -287.3,641.34 -641.56,641.34" /></g></g><path
         id="path70"
         style="fill:#263872;fill-opacity:1;fill-rule:nonzero;stroke:none"
         d="m 4251.45,1345.09 c -0.52,-0.13 -1.05,-0.13 -1.57,-0.13 -0.66,0 -1.44,0 -2.09,0.13 h 3.66" /><path
         id="path72"
         style="fill:#263872;fill-opacity:1;fill-rule:nonzero;stroke:none"
         d="m 5019.6,1345.09 c -0.52,-0.13 -0.91,-0.13 -1.43,-0.13 -0.66,0 -1.31,0 -1.97,0.13 h 3.4" /><path
         id="path74"
         style="fill:#263872;fill-opacity:1;fill-rule:nonzero;stroke:none"
         d="m 8367.44,410.66 c 0,-53.031 -11.38,-100.82 -34.04,-143.109 -22.65,-42.281 -54.59,-77.903 -95.84,-106.711 -41.37,-28.801 -90.73,-51.059 -148.08,-66.3791 -57.34,-15.4414 -120.84,-23.1718 -190.37,-23.1718 -39.93,0 -78.02,1.6992 -114.03,4.9726 -36.14,3.2696 -71.36,8.6367 -105.79,16.2383 -34.43,7.4609 -68.35,17.801 -101.87,31.031 -3.79,1.438 -7.46,3.008 -11.26,4.578 -0.39,0.129 -0.91,0.262 -1.3,0.52 -2.62,1.051 -5.38,2.23 -7.99,3.41 h -0.13 c -34.57,16.762 -58.4,52.242 -58.4,93.352 0,6.031 0.53,11.918 1.45,17.539 2.09,11.789 6.01,22.781 11.65,32.871 17.67,31.558 51.45,53.019 90.34,53.019 12.43,0 24.48,-2.218 35.61,-6.281 0.52,-0.129 1.05,-0.391 1.57,-0.648 2.61,-1.051 5.1,-2.231 7.6,-3.282 0.91,-0.39 1.69,-0.789 2.61,-1.179 25.67,-10.989 50.28,-19.758 73.85,-26.18 53.81,-14.789 103.96,-22.262 150.57,-22.262 76.72,0 134.59,11.391 173.61,34.043 39.01,22.52 58.53,53.289 58.53,91.91 0,21.598 -6.03,39.668 -18.21,54.079 -12.18,14.531 -29.71,26.582 -52.63,36.39 -22.91,9.949 -51.85,18.602 -86.55,26.192 -34.82,7.457 -74.75,15.578 -120.06,24.089 -34.04,5.239 -70.83,12.7 -110.1,22.524 -39.42,9.945 -75.94,25.269 -109.73,46.348 -33.78,20.945 -61.8,48.964 -84.05,84.05 -22.39,35.094 -33.52,80.524 -33.52,136.301 0,47.133 8.51,90.34 25.53,129.356 17.16,38.886 43.34,72.8 78.69,101.21 35.48,28.54 80.39,50.66 134.85,66.51 54.34,15.71 119.02,23.57 193.78,23.57 77.38,0 149.65,-8.51 216.95,-25.53 35.48,-9.04 69.92,-19.9 103.43,-32.61 1.44,-0.52 3.01,-1.04 4.46,-1.7 36,-15.18 61.27,-50.93 61.27,-92.302 0,-3.145 -0.13,-6.156 -0.39,-9.164 -1.58,-16.762 -7.07,-32.211 -15.84,-45.434 -17.82,-27.496 -48.84,-45.562 -83.93,-45.562 -10.34,0 -20.29,1.566 -29.73,4.449 -3.13,1.051 -6.28,2.094 -9.16,3.406 -20.68,7.594 -41.89,14.403 -63.63,20.684 -28.54,8.121 -57.48,14.664 -87.07,19.641 -29.45,4.847 -59.31,7.332 -89.42,7.332 -36.79,0 -67.56,-3.403 -92.57,-10.34 -24.87,-6.813 -45.04,-15.977 -60.49,-27.496 -15.45,-11.524 -26.31,-24.614 -32.86,-39.411 -6.68,-14.668 -9.95,-29.589 -9.95,-44.644 0,-34.832 18.85,-60.754 56.56,-77.777 37.7,-17.02 97.29,-30.11 178.58,-39.407 49.23,-7.859 97.55,-17.547 145.07,-28.937 47.53,-11.52 90.09,-27.887 127.39,-49.227 37.46,-21.34 67.57,-49.488 90.61,-84.578 22.91,-35.082 34.43,-80.523 34.43,-136.293" /><path
         id="path76"
         style="fill:#263872;fill-opacity:1;fill-rule:nonzero;stroke:none"
         d="M 7208.6,994.465 V 223.289 c 0,-66.641 -53.94,-120.449 -120.45,-120.449 -66.64,0 -120.59,53.808 -120.59,120.449 v 771.176 c 0,66.645 53.95,120.585 120.59,120.585 66.51,0 120.45,-53.94 120.45,-120.585" /><path
         id="path78"
         style="fill:#263872;fill-opacity:1;fill-rule:nonzero;stroke:none"
         d="M 5520.54,994.988 V 222.781 c 0,-66.25 -53.81,-119.941 -120.06,-119.941 -66.25,0 -120.07,53.691 -120.07,119.941 v 685.664 h -453.4 V 222.781 c 0,-62.859 -48.18,-114.57 -109.71,-119.941 h -21.48 c -61.67,5.371 -109.85,57.082 -109.85,119.941 V 908.445 H 4058.72 V 222.781 c 0,-66.25 -53.81,-119.941 -120.06,-119.941 -66.25,0 -120.06,53.691 -120.06,119.941 v 685.664 h -92.44 c -57.08,0 -103.3,46.219 -103.3,103.305 0,57.09 46.22,103.3 103.3,103.3 h 92.44 v 43.34 c 0,45.82 5.63,91.78 16.76,137.74 11.13,45.82 30.24,86.8 57.08,122.93 26.84,36.01 62.98,65.34 108.15,87.99 45.3,22.65 102.39,33.91 171.25,33.91 h 78.04 c 54.07,0 98.06,-43.86 98.06,-97.94 0,-53.68 -43.07,-97.14 -96.49,-97.93 h -3.66 l -19.91,0.13 c -31.42,0 -58,-4.84 -79.73,-14.79 -21.6,-9.82 -39.15,-23.44 -52.64,-40.72 -13.35,-17.41 -22.91,-37.71 -28.41,-61.02 -5.63,-23.3 -8.38,-48.44 -8.38,-75.28 v -38.36 h 527.25 v 43.34 c 0,45.82 5.5,91.78 16.76,137.74 11.13,45.82 30.24,86.8 57.48,122.93 27.23,36.01 63.63,65.34 109.2,87.99 45.55,22.65 102.51,33.91 170.72,33.91 h 78.04 c 54.07,0 97.94,-43.86 97.94,-97.94 0,-53.68 -43.08,-97.28 -96.51,-97.93 h -3.4 l -20.94,0.13 c -31.56,0 -58.14,-4.84 -79.74,-14.79 -21.6,-9.82 -39.01,-23.44 -52.11,-40.72 -13.1,-17.41 -22.66,-37.71 -28.54,-61.02 -5.89,-23.3 -8.91,-48.44 -8.91,-75.28 v -38.36 h 574.52 c 66.25,0 120.06,-53.68 120.06,-120.062" /><path
         id="path80"
         style="fill:#263872;fill-opacity:1;fill-rule:nonzero;stroke:none"
         d="m 5952.31,102.84 c -1.97,-0.121 -3.94,-0.121 -5.9,-0.121 -1.96,0 -3.93,0 -5.89,0.121 h 11.79" /><path
         id="path82"
         style="fill:#263872;fill-opacity:1;fill-rule:nonzero;stroke:none"
         d="m 6558.5,102.84 c -3.54,-0.391 -7.07,-0.52 -10.73,-0.52 -3.54,0 -7.07,0.129 -10.61,0.52 h 21.34" /><path
         id="path84"
         style="fill:#263872;fill-opacity:1;fill-rule:nonzero;stroke:none"
         d="m 6651.07,276.059 -9.43,13.882 c 3.4,-4.32 6.68,-9.031 9.43,-13.882" /><path
         id="path86"
         style="fill:#263872;fill-opacity:1;fill-rule:nonzero;stroke:none"
         d="M 6443.02,1072.76 6431.63,1056 c 3.27,5.89 7.07,11.52 11.39,16.76" /></g></g></svg>