<?xml version="1.0" encoding="utf-8"?>
<!-- Generator: Adobe Illustrator 24.3.0, SVG Export Plug-In . SVG Version: 6.00 Build 0)  -->
<svg version="1.1"
	 id="svg2" xmlns:cc="http://creativecommons.org/ns#" xmlns:dc="http://purl.org/dc/elements/1.1/" xmlns:rdf="http://www.w3.org/1999/02/22-rdf-syntax-ns#" xmlns:svg="http://www.w3.org/2000/svg"
	 xmlns="http://www.w3.org/2000/svg" xmlns:xlink="http://www.w3.org/1999/xlink" x="0px" y="0px" viewBox="0 0 287 187"
	 style="enable-background:new 0 0 287 187;" xml:space="preserve">
<style type="text/css">
	.st0{clip-path:url(#SVGID_2_);}
	.st1{fill:url(#path36_1_);}
	.st2{clip-path:url(#SVGID_4_);}
	.st3{fill:url(#path52_1_);}
	.st4{clip-path:url(#SVGID_6_);}
	.st5{fill:url(#path68_1_);}
</style>
<g id="g22">
	<g>
		<defs>
			<path id="SVGID_1_" d="M74.18,160.67L74.18,160.67c-9.88,0-17.89-8.01-17.89-17.89V42.61c0-9.88,8.01-17.89,17.89-17.89l0,0
				c9.88,0,17.89,8.01,17.89,17.89v100.17C92.07,152.66,84.06,160.67,74.18,160.67z"/>
		</defs>
		<clipPath id="SVGID_2_">
			<use xlink:href="#SVGID_1_"  style="overflow:visible;"/>
		</clipPath>
		<g id="g24" class="st0">
			
				<linearGradient id="path36_1_" gradientUnits="userSpaceOnUse" x1="-826.7841" y1="628.5511" x2="-825.7841" y2="628.5511" gradientTransform="matrix(-39.0693 -68.5823 -68.5823 39.0693 10897.6943 -81135.5938)">
				<stop  offset="0" style="stop-color:#6668BB"/>
				<stop  offset="1" style="stop-color:#4A7AC6"/>
			</linearGradient>
			<path id="path36" class="st1" d="M74.18,160.67L74.18,160.67c-9.88,0-17.89-8.01-17.89-17.89V42.61
				c0-9.88,8.01-17.89,17.89-17.89l0,0c9.88,0,17.89,8.01,17.89,17.89v100.17C92.07,152.66,84.06,160.67,74.18,160.67"/>
		</g>
	</g>
</g>
<g id="g38">
	<g>
		<defs>
			<path id="SVGID_3_" d="M25.42,139.04L25.42,139.04c-9.88,0-17.89-8.01-17.89-17.89V70.97c0-9.88,8.01-17.89,17.89-17.89l0,0
				c9.88,0,17.89,8.01,17.89,17.89v50.17C43.31,131.03,35.3,139.04,25.42,139.04z"/>
		</defs>
		<clipPath id="SVGID_4_">
			<use xlink:href="#SVGID_3_"  style="overflow:visible;"/>
		</clipPath>
		<g id="g40" class="st2">
			
				<linearGradient id="path52_1_" gradientUnits="userSpaceOnUse" x1="-827.7193" y1="627.0231" x2="-826.7193" y2="627.0231" gradientTransform="matrix(-30.7819 -62.0005 -62.0005 30.7819 13439.1914 -70490.1797)">
				<stop  offset="0" style="stop-color:#6668BB"/>
				<stop  offset="1" style="stop-color:#4A7AC6"/>
			</linearGradient>
			<path id="path52" class="st3" d="M25.42,139.04L25.42,139.04c-9.88,0-17.89-8.01-17.89-17.89V70.97
				c0-9.88,8.01-17.89,17.89-17.89l0,0c9.88,0,17.89,8.01,17.89,17.89v50.17C43.31,131.03,35.3,139.04,25.42,139.04"/>
		</g>
	</g>
</g>
<g id="g54">
	<g>
		<defs>
			<path id="SVGID_5_" d="M191.93,144.72c-28.03,0-50.73-22.71-50.73-50.73c0-27.99,22.71-50.73,50.73-50.73
				c28.02,0,50.73,22.74,50.73,50.73C242.66,122.01,219.95,144.72,191.93,144.72z M191.93,8.47c-47.24,0-85.54,38.28-85.54,85.51
				c0,47.24,38.31,85.54,85.54,85.54c47.23,0,85.54-38.31,85.54-85.54C277.47,46.75,239.16,8.47,191.93,8.47L191.93,8.47z"/>
		</defs>
		<clipPath id="SVGID_6_">
			<use xlink:href="#SVGID_5_"  style="overflow:visible;"/>
		</clipPath>
		<g id="g56" class="st4">
			
				<linearGradient id="path68_1_" gradientUnits="userSpaceOnUse" x1="-822.1641" y1="633.3984" x2="-821.1641" y2="633.3984" gradientTransform="matrix(-122.6979 -119.2019 -119.2019 122.6979 -25122.2305 -175566.5312)">
				<stop  offset="0" style="stop-color:#6668BB"/>
				<stop  offset="1" style="stop-color:#4A7AC6"/>
			</linearGradient>
			<path id="path68" class="st5" d="M191.93,144.72c-28.03,0-50.73-22.71-50.73-50.73c0-27.99,22.71-50.73,50.73-50.73
				c28.02,0,50.73,22.74,50.73,50.73C242.66,122.01,219.95,144.72,191.93,144.72z M191.93,8.47c-47.24,0-85.54,38.28-85.54,85.51
				c0,47.24,38.31,85.54,85.54,85.54c47.23,0,85.54-38.31,85.54-85.54C277.47,46.75,239.16,8.47,191.93,8.47"/>
		</g>
	</g>
</g>
</svg>
