<?xml version="1.0" encoding="utf-8"?>
<!-- Generator: Adobe Illustrator 24.3.0, SVG Export Plug-In . SVG Version: 6.00 Build 0)  -->
<svg version="1.1" id="Слой_1" xmlns="http://www.w3.org/2000/svg" xmlns:xlink="http://www.w3.org/1999/xlink" x="0px" y="0px"
	 viewBox="0 0 1039.7 696.22" style="enable-background:new 0 0 1039.7 696.22;" xml:space="preserve">
<style type="text/css">
	.st0{fill:url(#SVGID_1_);}
	.st1{fill:url(#SVGID_2_);}
	.st2{fill:url(#SVGID_3_);}
	.st3{fill:url(#SVGID_4_);}
</style>
<g>
	<linearGradient id="SVGID_1_" gradientUnits="userSpaceOnUse" x1="340.3268" y1="455.7636" x2="201.0744" y2="211.3202">
		<stop  offset="0" style="stop-color:#6F70B3"/>
		<stop  offset="1" style="stop-color:#417CBF"/>
	</linearGradient>
	<path class="st0" d="M276.35,585.73L276.35,585.73c-35.21,0-63.75-28.54-63.75-63.75V164.95c0-35.21,28.54-63.75,63.75-63.75h0
		c35.21,0,63.75,28.54,63.75,63.75v357.03C340.11,557.18,311.56,585.73,276.35,585.73z"/>
	<linearGradient id="SVGID_2_" gradientUnits="userSpaceOnUse" x1="162.2543" y1="475.7129" x2="52.5402" y2="254.728">
		<stop  offset="0" style="stop-color:#6F70B3"/>
		<stop  offset="1" style="stop-color:#417CBF"/>
	</linearGradient>
	<path class="st1" d="M102.55,508.62L102.55,508.62c-35.21,0-63.75-28.54-63.75-63.75V266.04c0-35.21,28.54-63.75,63.75-63.75h0
		c35.21,0,63.75,28.54,63.75,63.75v178.83C166.3,480.08,137.76,508.62,102.55,508.62z"/>
	<linearGradient id="SVGID_3_" gradientUnits="userSpaceOnUse" x1="914.6791" y1="560.515" x2="477.3549" y2="135.6513">
		<stop  offset="0" style="stop-color:#6F70B3"/>
		<stop  offset="1" style="stop-color:#417CBF"/>
	</linearGradient>
	<path class="st2" d="M696.02,43.27c-168.36,0-304.89,136.43-304.89,304.79c0,168.36,136.53,304.89,304.89,304.89
		c168.36,0,304.89-136.53,304.89-304.89C1000.91,179.7,864.38,43.27,696.02,43.27z M903.72,367.36c0,5.97-3.45,10.94-7.92,11.39
		l-40.17,4.06c-3.3,0.33-5.95,2.71-6.8,5.92c-3.64,13.73-9.09,26.7-16.07,38.69c-1.67,2.87-1.47,6.41,0.63,8.99l25.55,31.31
		c2.84,3.48,1.77,9.43-2.46,13.65l-27.22,27.22c-4.22,4.22-10.18,5.29-13.65,2.45l-31.31-25.56c-2.57-2.1-6.12-2.31-8.99-0.64
		c-11.99,6.98-24.96,12.43-38.69,16.07c-3.21,0.85-5.58,3.5-5.92,6.8l-4.07,40.17c-0.45,4.47-5.42,7.92-11.39,7.92h-38.49
		c-5.97,0-10.94-3.45-11.39-7.92l-4.62-45.65c-15.72-3.58-30.51-9.51-44.05-17.39c-2.87-1.67-6.41-1.47-8.99,0.63l-31.31,25.55
		c-3.48,2.84-9.43,1.77-13.65-2.46l-27.22-27.22c-4.22-4.22-5.29-10.17-2.45-13.65l25.56-31.31c2.1-2.57,2.3-6.11,0.63-8.99
		c-6.98-11.99-12.43-24.96-16.07-38.69c-0.85-3.2-3.5-5.58-6.8-5.92l-40.18-4.07c-4.47-0.45-7.92-5.42-7.92-11.39v-38.49
		c0-5.97,3.45-10.94,7.92-11.39l40.17-4.06c3.3-0.33,5.95-2.71,6.8-5.92c3.64-13.73,9.09-26.7,16.07-38.69
		c1.67-2.87,1.47-6.41-0.63-8.99l-25.55-31.31c-2.84-3.48-1.77-9.43,2.46-13.65l27.22-27.22c4.22-4.22,10.18-5.29,13.65-2.45
		l31.31,25.56c2.57,2.1,6.12,2.31,8.99,0.63c11.99-6.98,24.96-12.43,38.69-16.07c3.2-0.85,5.58-3.5,5.92-6.8l4.07-40.18
		c0.45-4.47,5.42-7.92,11.39-7.92h38.49c5.97,0,10.94,3.45,11.39,7.92l4.06,40.17c0.33,3.3,2.71,5.95,5.92,6.8
		c13.73,3.64,26.7,9.09,38.69,16.07c2.87,1.67,6.41,1.47,8.99-0.63l31.31-25.55c3.48-2.84,9.43-1.77,13.65,2.45l27.22,27.22
		c4.22,4.22,5.29,10.17,2.45,13.65l-25.56,31.31c-2.1,2.57-2.3,6.12-0.64,8.99c6.98,11.99,12.43,24.97,16.07,38.69
		c0.85,3.2,3.5,5.58,6.8,5.92l40.18,4.07c4.47,0.45,7.92,5.42,7.92,11.39V367.36z"/>
	<linearGradient id="SVGID_4_" gradientUnits="userSpaceOnUse" x1="740.6735" y1="391.4928" x2="651.3619" y2="304.726">
		<stop  offset="0" style="stop-color:#6F70B3"/>
		<stop  offset="1" style="stop-color:#417CBF"/>
	</linearGradient>
	<circle class="st3" cx="696.02" cy="348.11" r="62.26"/>
</g>
</svg>
